<svg xmlns="http://www.w3.org/2000/svg" viewBox="0 0 886.81 505.67"><defs><style>.cls-1{fill:#1a1e36;}.cls-2{fill:#1b9e8e;}.cls-3{fill:#191d36;}.cls-4{fill:#c1b566;}.cls-5{fill:#199d8d;}.cls-6{fill:#182239;}.cls-7{fill:#188f82;}.cls-8{fill:none;}.cls-9{fill:#1dab9f;}.cls-10{fill:#1dbeae;}.cls-11{fill:#ddd8c8;}.cls-12{fill:#1ebead;}.cls-13{fill:#47c6b9;}.cls-14{fill:#911915;}.cls-15{fill:#29b3a2;}.cls-16{fill:#911a15;}</style></defs><g id="Capa_2" data-name="Capa 2"><g id="Capa_1-2" data-name="Capa 1"><path class="cls-1" d="M172.65,453.9c-1.47,18.2-12.44,29.6-27.6,37.58-6.32,3.32-12.91,1.11-18-5.38-3-3.76-5.18-3.79-8.28-.44a81.2,81.2,0,0,1-16,13.49c-12.16,7.72-24.86,8.63-38,2.5a23.42,23.42,0,0,1-11.28-10.88C47,478,43.8,464.65,47.57,450.32a135.22,135.22,0,0,1,8.3-24c5.29-11.06,12.78-20.19,23.44-26.5a4.5,4.5,0,0,0,3.73.37c6.58-2.52,13.45-2.61,20.37-2.11,10.71,4,18.4,10.81,20.66,22.56-.61,7.76-4.44,13.17-11.64,16.23-1.41.59-3.39,1-2.52,3.4-2,.76-4,1.64-6,2.26-5,1.51-9.35-.18-11.49-4.3s-.9-8.32,3.28-11.65c5.56.2,10.62-1.06,14-5.83,2.73-3.83,1.88-6.43-2.44-8.22-5.86-2.42-11.7-2-17.41.56-1.31.58-3,1.1-1.93,3.22C69,429.86,59,448.11,59.19,471.44c.09,12.48,6.68,17.74,19.34,16.62a33.31,33.31,0,0,0,18.6-7.69c11.14-9.23,20.22-20.16,26.28-33.42,5.23-.73,3.94-5,4-8.08.12-5.59-.53-11.22,3.16-16.07,2.58-1.49,5.1-2.87,8.24-3.22,9-1,16.55,1.87,22.31,8.57,4.48,5.21,9.1,5.66,15,3,7.54-3.45,15.32-6.4,23-9.64,4.09-1.73,8-2.31,11.4,1.34l1.2,3.95c-.08,1.83-.3,4,1.58,4.85,1.73.82,3-1,4.29-1.91a37,37,0,0,0,4.41-4c10-10.39,20.87-10.26,24.69,6-.62,5.24-1.46,10.46-1.78,15.71-.13,2.11-2,4.94,1.35,6.45a104.08,104.08,0,0,1-6.83,20.64c-2.54,5.83-5.63,8-9.43,6.68-4.57-1.57-7.38-7.39-5.87-12.7,1.39-4.92,3.09-9.75,4.66-14.62.63-.16,1.6-.12,1.85-.52a30,30,0,0,0,4.51-15c.11-3.18-2.43-3-4.51-1.25-4.55,3.94-8.07,8.75-11.4,13.71-.71,1.06-1.07,2.09.27,3q-9.44,13.14-18.88,26.26c-2.21,3.06-4.9,6.24-9,4.44s-6.88-5.34-6.57-10.58c.42-7.08,2.59-13.62,5.39-20,4.6-2.41,4.55-7.31,5.8-11.39.48-1.56-1.66-1.94-2.94-1.67a62,62,0,0,0-20.27,7.9C171.65,449.6,168.63,451.91,172.65,453.9Zm-38.1,18.64c.15,3.33,1.23,5.23,4.88,3.09,7.76-4.55,14.19-10.32,17.77-18.86,1.29-3.06.41-4.21-2.77-4.4-3.81-.21-7.61-.71-11.42-1-2.68-.23-4.4,1-5.29,3.55C135.73,460.6,135.65,466.65,134.55,472.54Zm13.78-39.77c-1.43.14-3.41-.27-3.55,1.73-.15,2.32,1.86,2.89,3.74,3,1.56.05,3.24-.66,3.34-2.3C152,432.91,150,432.94,148.33,432.77Z"/><path class="cls-2" d="M813.38,243.84c0,35.65.29,71.31-.27,107-.38,24.1-9.09,45.5-24.45,64.08-3.39,4.1-6.94,8-9.39,12.79l-7.8,6.19c-1.11.26-2.06.67-2,2.06l.24,0L764.23,437c0-2.15-.15-4.3-.12-6.45,0-3.34-2.34-4.64-4.87-5.49-3-1-4.65,1-5.86,3.34-4,7.76-6.77,16.22-13.46,22.33l-5.67.25c-2.51-3.61-.13-7.06.46-10.5.79-4.62,1.25-8.94-3.37-11.94a3.19,3.19,0,0,1,2.4-2.31c10-3.46,19.18-8.09,27.25-15.11,18.64-16.21,29.83-36.4,30.21-61.11.69-45.28.23-90.57.25-135.86,2.17.78,2.71,2.61,3.14,4.63.87,4.18,1.87,8.34,2.83,12.5a13.94,13.94,0,0,0,10.3,10.88Z"/><path class="cls-3" d="M440.49,453.89c-1.05,2.07-1.94,4.24-3.17,6.19-3.68,5.81-5.65,12-4.9,18.94.27,2.54.13,5.06-2.82,6.27a6.83,6.83,0,0,1-7.42-1.29,13,13,0,0,1-4.69-10.08c-.09-3.6,0-7.21,0-11.73-3.35,4-6.29,7.47-9.21,11-2.14,2.54-4.16,5.21-6.45,7.62-2.64,2.78-5.76,6.23-9.77,4.27a11.65,11.65,0,0,1-6.48-10.5c-.12-5.6,2.05-10.72,3.55-16,.45-1.6,1.06-3.15,1.6-4.71,4.71-1.25,3.69-6,5.55-9.05a1.9,1.9,0,0,0-.45-2.66,2.07,2.07,0,0,0-2.62.79c-2.67,3.12-5.27,6.3-7.86,9.49-.73.9-.11,1.46.66,1.91-7.84,9.5-15.6,19.07-23.57,28.46-2.81,3.31-6,6.69-11.07,4.06-4.08-2.12-6.08-7.58-4.54-12.64,2.08-6.83,4.45-13.56,6.7-20.33,1.73-.07,2.56-1.12,3.15-2.64,2.47-6.42,5.21-12.75,6.56-19.55.62-1.49,1.34-2.94,1.85-4.46,1.87-5.64,1.67-5.86-4.61-5.35-5.25-.79-6.61-4.59-7.07-9.1.74-1.64,1.48-3.29,2.23-4.93,5.61-4.08,11.25-3.74,16.9-.07l4.36,5.27c2.26,5.48,1.73,11.1.82,16.73-1.46,1.13-1.53,2.89-1.88,4.44-.3,1.37-1.06,3.21.43,4.1s2.64-.8,3.64-1.79c1.74-1.73,3.73-3.27,4.86-5.54,4.9-4.25,9.6-8.76,14.75-12.68,6.7-5.11,13-2.69,15.11,5.45.5,1.93.8,3.91,1.19,5.87-.44,2.2-1.62,5.3.36,6.29,2.21,1.1,3.48-2.2,5.12-3.62a8.63,8.63,0,0,0,1.17-1.55c4.07-3.87,8-7.93,12.25-11.58,6.32-5.4,10-5,15.64,1l.21,2.62-.39,7.95c-2.89,6.64-6.2,13.06-9.7,19.39C439.87,451.16,437.55,452.68,440.49,453.89Z"/><path class="cls-3" d="M346.8,453.92c-3.65,9.13-7.7,18-14.42,25.42-9.32,10.23-19.86,9-26.65-2.95a41.15,41.15,0,0,1-4.09-11.7c-.92-4.16-3-4.83-6.35-2.57-2.07,1.38-4.22,2.67-6.18,4.19a6.28,6.28,0,0,0-2.19,7.57,16,16,0,0,1,.55,1.91c1.8,8.78-.16,15.23-5.53,18.19-6.47,3.57-19.08,2.46-24.12-2.12-8.71-7.91-9.62-18.36-1-26.13,4.66-4.22,5.09-7.33,1.6-11.82,1.78-1.19.5-2.48-.15-3.36-5.29-7.16-6.74-15.24-6-23.88l.26-1.91c7.51-10.39,14.46-12.95,23.44-8.56a22.94,22.94,0,0,1,12.27,14.36c-2.53,5.49-3.44,5.59-8.52,1-5.25-4.76-8.41-5.1-13.19-1.42s-5.53,8.1-2.49,13.7a45.93,45.93,0,0,0,4.14,6.21c3.62,4.71,5.43,5,10.46,2.07,6.88-4.05,13.76-8.1,20.58-12.24,3.55-2.15,7.08-4.39,9.26-8.13,1.57-1.42,3.25-2.75,4.7-4.29,4.78-5.07,6.85-5,11.05.74.58.8,1.1,1.64,1.64,2.45.09,4.67-1.8,8.38-4.61,12.11-2.56,3.39-6.46,6.95-3.62,12.17-.28,2.76-.71,5.52-.8,8.29,0,1.19,0,2.84,1.52,3.34s2.37-.83,3.15-1.84a30.06,30.06,0,0,0,5-8.93c1.3-.68,2.84-1,3.54-2.55L339.78,432c.86-1.21,1.78-2.38,2.57-3.63,4.78-7.61,6.73-7.8,12.95-1.17a.67.67,0,0,0,.18.62l.06,4-9.45,19.71C345.62,452.49,345.51,453.41,346.8,453.92Zm-80.16,25.5a6.87,6.87,0,0,0,5.95.45c2-.6,2.32-2.39,1.72-4-.82-2.16-2.29-1.07-3.5-.21C269.38,476.71,267.67,477.43,266.64,479.42Z"/><path class="cls-3" d="M739.92,450.71c6.69-6.11,9.5-14.57,13.46-22.33,1.21-2.36,2.91-4.34,5.86-3.34,2.53.85,4.92,2.15,4.87,5.49,0,2.15.08,4.3.12,6.45-.82,7.63-4.69,14.13-7.92,20.82A159.68,159.68,0,0,1,742,481.18c-8.78,12.3-19.18,11.33-25.59-2.36-.34-.71-.83-1.36-1.35-2.2-3.51,3.34-5.34,7.49-7.7,11.27-1.86,3-3.65,6-6.58,8.05-3.46,2.44-6.82,3.23-10.18-.37a38.8,38.8,0,0,0-4.7-3.69,10.28,10.28,0,0,1-4.11-9.65c1-8.91,2.15-17.81,3.25-26.71,2.39-1.49,2.65-4,3-6.42,1.06-6.46,2-12.93,3-19.39,1.29-3.43.18-5.56-3.24-7-3.72-1.54-5.48-4.59-5.37-8.66,2-2,4.6-2.55,7.19-3a21.5,21.5,0,0,0,11.17-6c6-5.71,6.71-5.69,12.33,0,.17.55.35,1.09.52,1.63a20.06,20.06,0,0,1-3.44,9.63c-2.92,4.75-5.7,9.66-6.5,15.35-3.48,6.27-4.34,13.26-5.5,20.16a4.18,4.18,0,0,0,1.23,3.57l-1.89,13.82.7.31q4.18-6.9,8.36-13.79c2.83-1.25,4.66-3.44,6.25-6.06,4.19-6.9,8.57-13.69,12.87-20.52l5.49-.68c4.62,3,4.16,7.32,3.37,11.94-.59,3.44-3,6.89-.47,10.5-1,4.5-3,8.84-2.59,14.88C734.79,460.11,737.35,455.41,739.92,450.71Z"/><path class="cls-3" d="M589.7,455.88c3.75,2.69,8.12,4.5,11.31,8,6.74,7.46,5.79,16.52-2.45,22.27-10.56,7.36-28.12,7.78-38.84.75a20.42,20.42,0,0,1-9-13.85c-.81-4.33,2.66-7.09,6.77-5.4a19.39,19.39,0,0,1,4.12,2.73c6.91,5.29,14.91,5.55,23,.43-5.91-3.17-12.15-4.81-18.12-7.09-7.55-2.87-15.75-4.3-22.06-9.94,2.35-.62.92-1.55.11-2.2-6.71-5.38-9.22-12.65-9.52-20.93,0-6.8,3.28-12.3,6.85-17.71a19.57,19.57,0,0,0,5.86-5.08c4.64-2.21,9.14-4.77,13.94-6.55,17.14-6.36,33.48-7.45,46.71,8.37.42.66.84,1.31,1.25,2,2.47,6,2.91,12-.47,17.83-8.36,8.06-15.69,8.48-21.7,1.24-1.72-5.86,2.38-7.85,6.46-10.12,2.13-1.19,5.95-1.6,5.43-4.82-.47-2.85-3.66-4-6.41-5a11.89,11.89,0,0,0-5.36-.92c-10,1.22-19.73,3.37-28.24,9-4.52,3-9.3,6-10.84,11.79-3.2,6.24-2.25,10.66,3.6,13.1,9.8,4.09,19.75,7.88,30.18,10.18Z"/><path class="cls-1" d="M771.47,433.85l7.8-6.19a32,32,0,0,1,20.73,3c3.06,1.58,3.55-1.51,4.36-3.29,3.5-7.71,6.81-15.5,10.3-23.22,1.66-3.69,3.39-7.7,8.69-6.09,4,1.2,5.47,6,4,11.29-3.34,12.24-8.86,23.62-13.61,35.31-2.95,7.27-5.74,14.75-3.47,22.75,3.26,11.46,8.15,11.74,16.77,7.17a21.27,21.27,0,0,0,3.67-2.58c3.24-2.74,6.54-4.09,10.22-.81,2.75,2.46,3.43,8.59,1.36,12.06-4.61,7.75-19.14,11.83-26.71,7-5.24-3.35-10.69-6.8-13.83-12.54-2.26-4.16-4.64-3.61-7.22-.47a85.44,85.44,0,0,1-9.07,9.95c-8.89,7.89-17.1,4.52-21.84-4.83-6.74-13.28-3.58-26.79,2.64-39.71,1.1-2.27,3.54-3.89,3.39-6.78l-.24,0C771.47,436.54,771.23,435,771.47,433.85Zm0,35.1c0,3.78.51,6,1.41,6.38a2.8,2.8,0,0,0,3.15-.9,121.3,121.3,0,0,0,21.18-28.16c1.59-2.89.39-5.16-3.1-5.78a12.94,12.94,0,0,0-12.23,4A38.37,38.37,0,0,0,771.47,469Z"/><path class="cls-3" d="M501.39,455.23c.19,4.1-1.61,7.77-2.57,11.62-.66,2.62-.77,4.2,2.87,3.42s7.71-1,9.49,3.21c1.56,3.67,4,7.88,0,11.52-3.63,3.31-7.86,6.16-13.05,3.82-7.38-3.32-14.55-7-14.76-16.82-.07-3.48-1.89-2.72-3.72-.91-4.83,4.8-9.37,9.92-14.92,14-4,2.89-8.07,5.9-13.2,3.18-5.3-2.8-7.54-7.81-8-13.53-.4-4.69.82-9.23,2.16-13.71.71-2.37,1.34-4.77,2-7.16l12.83-23c1.2-1.36,2.41-2.7,3.59-4.07,4.85-5.69,10.86-8.1,18.15-5.92,5.84,1.74,11.45,4.19,17.52,5.27,2.36.41,3.88,2.4,4.9,4.6.41,7.68-3,14.67-4,22.11A2.74,2.74,0,0,0,501.39,455.23Zm-16.11-18.77c-.19-2.14-1.66-2.49-3.18-2.61-3.28-.25-5.74,1.44-7.76,3.72a56.29,56.29,0,0,0-8.76,13.19c-.54,1.13-1.63,2.37-.33,3.6a3.74,3.74,0,0,0,3.72.69,7.93,7.93,0,0,0,4.55-2.82c3.66-4.7,7.25-9.44,10.85-14.18A13.46,13.46,0,0,0,485.28,436.46Z"/><path class="cls-3" d="M665.91,454.63c-.14,1.15-.19,2.32-.44,3.45-1.64,7.42-1.66,7.51,5.55,7.8,3.83.16,5.68,2.14,6.45,5.64s.37,6.58-3.28,8.45c-11.42,5.87-21.18.1-25.27-11-1.86-5.08-2.83-3.33-5.11-1a100.93,100.93,0,0,1-12.88,11.74c-9.39,6.85-18.94,3.14-21.86-8.06-1.46-5.63-1.45-10.71,1.42-15.76.8-.79,2-1.43,2.35-2.39,3.15-8,7.91-15.06,12-22.52,5.77-5.94,11.05-13.42,20.79-11.23,8.15,1.83,16.66,3.05,23.76,8.15.34,1,.68,1.92,1,2.88-1.25,5.25-2.52,10.49-3.75,15.74C666,449.18,664.7,451.79,665.91,454.63Zm-31.14-.79a69.9,69.9,0,0,0,13.17-15.43c.89-1.36,3.18-2.88,1.57-4.65s-4-1.25-6.07-.39a10,10,0,0,0-2.9,1.86c-5.42,5-9.78,10.75-12,17.9a11.14,11.14,0,0,0-2.21,4.9c-.23,1.11-.82,2.42.44,3.14,1,.59,1.78-.53,2.43-1.16C631.16,458.06,633.54,456.47,634.77,453.84Z"/><path class="cls-4" d="M813.38,243.84l-5.66-1.7a13.94,13.94,0,0,1-10.3-10.88c-1-4.16-2-8.32-2.83-12.5-.43-2-1-3.85-3.14-4.63l-2-.59a23.19,23.19,0,0,0-10-1.84c-2.13-1.56-4.56-1.55-7-1.29-2.7-1-4,.78-5.15,2.69-1.85,3-3.56,6-5.64,8.81-3.76,5-8.12,9.53-15,9.4-7.76-.14-14.71-2.5-19.81-8.82-1.71-5.91.4-11.11,3-16.22a14.77,14.77,0,0,0,4-7c1.47-2.2,3.06-4.34,4.41-6.62,12-20.32,24.42-40.42,36.94-60.44,3.93-6.3,8.78-10.25,16.35-10.39,6.54,1.28,13.11,2.43,19.24,5.23l4.48,8.06a33.13,33.13,0,0,0,.36,4.47c6.14,28.59,11.52,57.34,16.7,86.12,1.53,8.5-.15,13.1-7.39,17.73Zm13.34-14.91a23.45,23.45,0,0,0-.22-2.48c-5-30-11.06-59.87-17.39-89.65a8.57,8.57,0,0,0-3.06-5c-8.29-6.55-21.16-4.61-26.71,4.29Q763.22,161.93,747.42,188c-4.91,8.12-9.49,16.43-14.12,24.72-1.54,2.75-2.14,5.62.48,8.25,6,6,17,5.46,22.09-1.38,2.49-3.32,4.61-6.93,6.77-10.48,2.33-3.82,5.65-5.66,10.05-5,6.26.91,12.49,2,18.7,3.11,5.15.95,8.14,4,9,9.31.74,4.42,1.92,8.77,2.9,13.15A7.76,7.76,0,0,0,809.6,236a53.4,53.4,0,0,0,9.33,1.53C825.2,237.73,826.89,235.79,826.72,228.93Z"/><path class="cls-2" d="M824.83,243.46c7.24-4.63,8.92-9.23,7.39-17.73C827,197,821.66,168.2,815.52,139.61a33.13,33.13,0,0,1-.36-4.47c2.64,2.07,2.71,5.2,3.3,8.08,5.69,27.3,10.86,54.71,15.68,82.18,1,5.67,2.89,11.47-1.88,16.65,8,1.29,12.84-3.75,11.5-11.94-2.32-14.09-4.66-28.18-7.52-42.16-3.83-18.69-6.27-37.69-12-56,7,.8,9.84,3.35,11.5,10.87,5.92,26.75,10.65,53.72,15.66,80.65.58,3.09,1,6.21,1.51,9.33,1.33,8.66-3.07,13.43-11.81,12.71C835.62,245.11,830.38,243,824.83,243.46Z"/><path class="cls-5" d="M624.82,431c-4.07,7.46-8.83,14.56-12,22.52-.38,1-1.55,1.6-2.35,2.39H589.7L582.32,454c.29-2.32-.56-3.75-2.93-4.45-3.67-1.09-7.27-2.39-10.89-3.64-10.72-3.71-10.71-3.71-5.27-13.21a3.28,3.28,0,0,0,.22-1c8-.44,16.1,1,24-1,6,7.24,13.34,6.82,21.7-1.24,3.87,2.53,8.18.74,12.26,1.22h1.93Z"/><path class="cls-6" d="M824.19,132c5.78,18.27,8.22,37.27,12,56,2.86,14,5.2,28.07,7.52,42.16,1.34,8.19-3.47,13.23-11.5,11.94,4.77-5.18,2.88-11,1.88-16.65-4.82-27.47-10-54.88-15.68-82.18-.59-2.88-.66-6-3.3-8.08l-4.48-8.06,2.49-.24C816.78,128.7,821,129.33,824.19,132Z"/><path class="cls-2" d="M501.39,455.23a2.74,2.74,0,0,1-.64-2.42c3.29-.58,7.18,1.41,9.81-1.92,2.89-3.63,2.33-11.79-.82-15.32l-4.28-4.81,1,0,28.58-.06c.3,8.28,2.81,15.55,9.52,20.93.81.65,2.24,1.58-.11,2.2-13.05.32-26.2-1.8-39.15,1.59C504.11,455.72,502.7,455.3,501.39,455.23Z"/><path class="cls-5" d="M665.91,454.63c-1.21-2.84.11-5.45.73-8.11,1.23-5.25,2.5-10.49,3.75-15.74,6.92-.47,14,1.11,20.78-1.07-1,6.46-2,12.93-3,19.39-.39,2.4-.65,4.93-3,6.42C678.67,455.61,672.23,456.52,665.91,454.63Z"/><path class="cls-6" d="M886.53,418.6c.77,3.6-.8,6-3.3,8.68a30.83,30.83,0,0,0-7.83,16.4A40.93,40.93,0,0,1,870,459.6c-.79,1.26-1.29,3.7-3.42,2.82s-1.47-3.09-.91-4.81A253,253,0,0,1,875,433q3.72-8.43,7.2-17c.61-1.49.49-3.71,2.9-3.11,2.17.54,1.66,2.53,1.5,4.17C886.59,417.58,886.56,418.07,886.53,418.6Z"/><path class="cls-7" d="M172.65,453.9c-4-2-1-4.3.37-5.16a62,62,0,0,1,20.27-7.9c1.28-.27,3.42.11,2.94,1.67-1.25,4.08-1.2,9-5.8,11.39Z"/><path class="cls-7" d="M460.55,430.82l-12.83,23-7.23.07c-2.94-1.21-.62-2.73,0-3.79,3.5-6.33,6.81-12.75,9.7-19.39Z"/><path class="cls-7" d="M252.22,426.67c-.73,8.64.72,16.72,6,23.88.65.88,1.93,2.17.15,3.36l-12.14,0c-3.35-1.51-1.48-4.34-1.35-6.45.32-5.25,1.16-10.47,1.78-15.71,3.35,0,4.84-1.74,4.79-5A2.77,2.77,0,0,1,252.22,426.67Z"/><path class="cls-7" d="M346.8,453.92c-1.29-.51-1.18-1.43-.71-2.43l9.45-19.71,7.68-.08c-1.35,6.8-4.09,13.13-6.56,19.55-.59,1.52-1.42,2.57-3.15,2.64Z"/><path class="cls-6" d="M20,454.11c.13,3-1.19,5.65-2.47,8.26-4.61,9.38-10.21,18.29-13.24,28.41-.38,1.26-.89,3.38-2.92,2.52-1.59-.68-1.5-2.56-1-4a69.34,69.34,0,0,1,3.47-8.24c4.85-9.21,9.84-18.34,14.77-27.5Z"/><path class="cls-7" d="M219.49,453.8c-1.34-.87-1-1.9-.27-3,3.33-5,6.85-9.77,11.4-13.71,2.08-1.79,4.62-1.93,4.51,1.25a30,30,0,0,1-4.51,15c-.25.4-1.22.36-1.85.52Z"/><path class="cls-6" d="M23.1,431.27c-3.49.17-4.68-1.85-4.7-4.95,0-4.18,2.81-7.47,6.44-7.35s5.38,2.41,5.4,5.81C30.26,428.88,27.44,431.28,23.1,431.27Z"/><path class="cls-6" d="M868.53,480.16a6.87,6.87,0,0,1-6.72,6.55c-2.93-.1-5.18-1.32-5.23-4.68,0-2.93,4-6.92,6.87-6.61C866.17,475.72,868.76,476.53,868.53,480.16Z"/><path class="cls-7" d="M386,454.34c-.77-.45-1.39-1-.66-1.91,2.59-3.19,5.19-6.37,7.86-9.49a2.07,2.07,0,0,1,2.62-.79,1.9,1.9,0,0,1,.45,2.66c-1.86,3-.84,7.8-5.55,9.05C389.11,453.8,387.49,453.48,386,454.34Z"/><path class="cls-8" d="M123.41,447c-6.06,13.26-15.14,24.19-26.28,33.42a33.31,33.31,0,0,1-18.6,7.69c-12.66,1.12-19.25-4.14-19.34-16.62C59,448.11,69,429.86,87.88,416.33a31.67,31.67,0,0,1,7.77,10.27c-4.18,3.33-5.38,7.61-3.28,11.65s6.53,5.81,11.49,4.3c2.06-.62,4-1.5,6-2.26Z"/><path class="cls-9" d="M103.53,395.78c8,.46,13.08,5.4,17.09,11.49,2.24,3.42,5.18,6,7.87,8.94a4.19,4.19,0,0,0,5,1.06c11-4,20.38-.87,28,7.21,4.23,4.46,8.53,5.35,13.83,3.19,7.22-3,14.39-6.06,21.59-9.07a20.59,20.59,0,0,1,7.19-1.86c4.33-.18,6.74,1.42,6.38,6.06-3.42-3.65-7.31-3.07-11.4-1.34-7.64,3.24-15.42,6.19-23,9.64-5.91,2.71-10.53,2.26-15-3-5.76-6.7-13.31-9.58-22.31-8.57-3.14.35-5.66,1.73-8.24,3.22-2.46.17-4.35-1.39-6.51-2.14-2.26-11.75-9.95-18.54-20.66-22.56Z"/><path class="cls-8" d="M134.55,472.54c1.1-5.89,1.18-11.94,3.17-17.65.89-2.56,2.61-3.78,5.29-3.55,3.81.32,7.61.82,11.42,1,3.18.19,4.06,1.34,2.77,4.4-3.58,8.54-10,14.31-17.77,18.86C135.78,477.77,134.7,475.87,134.55,472.54Z"/><path class="cls-7" d="M95.65,426.6a31.67,31.67,0,0,0-7.77-10.27c-1.1-2.12.63-2.64,1.94-3.22,5.71-2.52,11.55-3,17.41-.56,4.32,1.79,5.17,4.39,2.44,8.22C106.27,425.54,101.21,426.8,95.65,426.6Z"/><path class="cls-7" d="M124.07,420.66c2.16.75,4.05,2.31,6.51,2.14-3.69,4.85-3,10.48-3.16,16.07-.07,3.08,1.22,7.35-4,8.08l-13.51-6.66c-.86-2.39,1.12-2.81,2.53-3.4C119.63,433.83,123.46,428.42,124.07,420.66Z"/><path class="cls-9" d="M211.7,426.75c3.68,1.71,6-.81,8.19-2.94a44,44,0,0,1,8.89-7.15c6.34-3.51,12.1-1.86,15.44,4.61,1.57,3.06,3,6.12,7.24,5.48,0,3.23-1.44,5-4.79,5-3.82-16.28-14.7-16.41-24.69-6a37,37,0,0,1-4.41,4c-1.27.95-2.56,2.73-4.29,1.91C211.4,430.71,211.62,428.58,211.7,426.75Z"/><path class="cls-7" d="M148.33,432.77c1.62.17,3.67.14,3.53,2.39-.1,1.64-1.78,2.35-3.34,2.3-1.88-.07-3.89-.64-3.74-3C144.92,432.5,146.9,432.91,148.33,432.77Z"/><path class="cls-10" d="M789.45,213.54l2,.59c0,45.29.44,90.58-.25,135.86-.38,24.71-11.57,44.9-30.21,61.11-8.07,7-17.29,11.65-27.25,15.11a3.19,3.19,0,0,0-2.4,2.31l-5.49.68-9.48.64c.29-1.09.3-2.38.91-3.26,3.64-5.31,4.27-10.24-1.18-14.85-.8-.67-1-2-1.5-3.07,3,.6,5.92-.55,8.87-.92,34.68-4.37,58.9-31.82,58.91-66.74q0-52.94,0-105.86a26.86,26.86,0,0,0-1-8.37Q785.42,220.16,789.45,213.54Z"/><path class="cls-8" d="M739.92,450.71c-2.57,4.7-5.13,9.4-8.27,15.13-.45-6,1.54-10.38,2.59-14.88Z"/><path class="cls-11" d="M771.47,433.85c-.24,1.11,0,2.69-2,2.06C769.41,434.52,770.36,434.11,771.47,433.85Z"/><path class="cls-12" d="M252.48,424.76c-1.2-3.44.9-5.8,2.76-8.19,1.18-1.51,3.08-2.51,3.26-4.71,8.29-.48,16.52.74,24.76.84,23.38.27,46.75.09,70.13.09.46,4.51,1.82,8.31,7.07,9.1-.06,3.31-1.91,5.12-5,5.88a.67.67,0,0,1-.18-.62c.7-4.4-1.69-7-5.45-8.18-4-1.21-6.24,1.52-7.35,4.91-1.61,4.93-4.8,6.67-9.8,6-1.72-.24-3.67-.5-5.21.9l-1.67-.11c-.54-.81-1.06-1.65-1.64-2.45-4.2-5.7-6.27-5.81-11.05-.74-1.45,1.54-3.13,2.87-4.7,4.29-6.74-.43-13.6,1.09-20.24-1.17a22.94,22.94,0,0,0-12.27-14.36C266.94,411.81,260,414.37,252.48,424.76Z"/><path class="cls-13" d="M372.52,407.79a24.75,24.75,0,0,1,7.85-1c30.1.05,60.23-.77,90.3.29,24.93.87,49.83.29,74.74.72l2.36.13A19.49,19.49,0,0,1,541.9,413c-14.25-1.19-28.44.85-42.68.79-16.58-.07-33.17,0-49.76,0a12.89,12.89,0,0,0-3.33-.9q-34.62,0-69.25.21Z"/><path class="cls-10" d="M449.46,413.75c16.59,0,33.18-.06,49.76,0,14.24.06,28.43-2,42.68-.79-3.56,5.41-6.89,10.91-6.84,17.71l-28.58.06c-2.12-5.14-5-9.16-11.36-9.36-2.56-.08-5.06-1.31-7.49-2.45-7.52-3.52-15.16-4.74-21.25,2.4-4.55,5.34-8.86,6.95-14.41,1.8-.31-.3-.94-.25-1.42-.37l-.21-2.62C450.05,418,449.75,415.88,449.46,413.75Z"/><path class="cls-13" d="M353.39,412.79c-23.38,0-46.75.18-70.13-.09-8.24-.1-16.47-1.32-24.76-.84-24.65,0-49.32.65-73.93-.32-17.5-.7-34.58-4.67-49-15.77a30.14,30.14,0,0,1-2.67-2.24,14.77,14.77,0,0,1-1.4-2.16c3.21-.06,4.34,2.32,6,3.46,14.88,10,31.58,14.27,49.14,13.81,38.61-1,77.22-.2,115.81-1.12,15.62-.38,31.24-.31,46.86-.74,2.17-.06,4.35-.11,6.31,1.08C354.87,409.5,354.13,411.15,353.39,412.79Z"/><path class="cls-12" d="M449.46,413.75c.29,2.13.59,4.26.88,6.39-5.62-6-9.32-6.36-15.64-1-4.27,3.65-8.18,7.71-12.25,11.58a14.17,14.17,0,0,1-6.65-1.12c-.39-2-.69-3.94-1.19-5.87-2.1-8.14-8.41-10.56-15.11-5.45-5.15,3.92-9.85,8.43-14.75,12.68-2.34-.44-4.87.17-7.05-1.21.91-5.63,1.44-11.25-.82-16.73q34.64-.12,69.25-.21A12.89,12.89,0,0,1,449.46,413.75Z"/><path class="cls-9" d="M450.55,422.76c.48.12,1.11.07,1.42.37,5.55,5.15,9.86,3.54,14.41-1.8,6.09-7.14,13.73-5.92,21.25-2.4,2.43,1.14,4.93,2.37,7.49,2.45,6.39.2,9.24,4.22,11.36,9.36l-1,0-.75-.06c-1-2.2-2.54-4.19-4.9-4.6-6.07-1.08-11.68-3.53-17.52-5.27-7.29-2.18-13.3.23-18.15,5.92-1.18,1.37-2.39,2.71-3.59,4.07l-10.39-.11Z"/><path class="cls-9" d="M355.48,427.77c3.07-.76,4.92-2.57,5-5.88,6.28-.51,6.48-.29,4.61,5.35-.51,1.52-1.23,3-1.85,4.46l-7.68.08Z"/><path class="cls-7" d="M377.7,429.79c2.18,1.38,4.71.77,7.05,1.21-1.13,2.27-3.12,3.81-4.86,5.54-1,1-2,2.75-3.64,1.79s-.73-2.73-.43-4.1C376.17,432.68,376.24,430.92,377.7,429.79Z"/><path class="cls-7" d="M415.8,429.64a14.17,14.17,0,0,0,6.65,1.12,8.63,8.63,0,0,1-1.17,1.55c-1.64,1.42-2.91,4.72-5.12,3.62C414.18,434.94,415.36,431.84,415.8,429.64Z"/><path class="cls-7" d="M288.19,430.56c6.64,2.26,13.5.74,20.24,1.17-2.18,3.74-5.71,6-9.26,8.13-6.82,4.14-13.7,8.19-20.58,12.24-5,3-6.84,2.64-10.46-2.07a45.93,45.93,0,0,1-4.14-6.21c-3-5.6-2.14-10.14,2.49-13.7s7.94-3.34,13.19,1.42C284.75,436.15,285.66,436.05,288.19,430.56Z"/><path class="cls-7" d="M325.82,430.63l1.67.11c3.92,2.21,8.24.33,12.29,1.21L330,453.22c-.7,1.53-2.24,1.87-3.54,2.55-3,0-6,.41-8.9-.86-2.84-5.22,1.06-8.78,3.62-12.17C324,439,325.91,435.3,325.82,430.63Z"/><path class="cls-9" d="M339.78,432c-4-.88-8.37,1-12.29-1.21,1.54-1.4,3.49-1.14,5.21-.9,5,.71,8.19-1,9.8-6,1.11-3.39,3.33-6.12,7.35-4.91,3.76,1.14,6.15,3.78,5.45,8.18-6.22-6.63-8.17-6.44-12.95,1.17C341.56,429.57,340.64,430.74,339.78,432Z"/><path class="cls-8" d="M317.59,454.91c2.88,1.27,5.91.89,8.9.86a30.06,30.06,0,0,1-5,8.93c-.78,1-1.63,2.35-3.15,1.84s-1.55-2.15-1.52-3.34C316.88,460.43,317.31,457.67,317.59,454.91Z"/><path class="cls-8" d="M266.64,479.42c1-2,2.74-2.71,4.17-3.73,1.21-.86,2.68-1.95,3.5.21.6,1.58.28,3.37-1.72,4A6.87,6.87,0,0,1,266.64,479.42Z"/><path class="cls-7" d="M716.37,429.84l9.48-.64c-4.3,6.83-8.68,13.62-12.87,20.52-1.59,2.62-3.42,4.81-6.25,6.06l-7.17-.34a4.18,4.18,0,0,1-1.23-3.57c1.16-6.9,2-13.89,5.5-20.16C708.1,431.69,712.48,432.44,716.37,429.84Z"/><path class="cls-9" d="M716.37,429.84c-3.89,2.6-8.27,1.85-12.54,1.87.8-5.69,3.58-10.6,6.5-15.35a20.06,20.06,0,0,0,3.44-9.63,6.13,6.13,0,0,1,.86.11l0,1.82c.48,1,.7,2.4,1.5,3.07,5.45,4.61,4.82,9.54,1.18,14.85C716.67,427.46,716.66,428.75,716.37,429.84Z"/><path class="cls-9" d="M682.56,414.08c-.39-3.62,1.41-5.63,4.79-6.42,5.93-1.39,11.21-3.85,15.35-8.54,1.55-1.75,3.67-2.93,6.23-1.55,3,1.62,5.05,3.77,4.32,7.53-5.62-5.71-6.36-5.73-12.33,0a21.5,21.5,0,0,1-11.17,6C687.16,411.53,684.53,412.07,682.56,414.08Z"/><path class="cls-8" d="M699.56,455.44l7.17.34q-4.18,6.89-8.36,13.79l-.7-.31Z"/><path class="cls-9" d="M587.5,430.75c-8,2.05-16,.57-24,1l-14.91-1c1.54-5.83,6.32-8.79,10.84-11.79,8.51-5.67,18.25-7.82,28.24-9a11.89,11.89,0,0,1,5.36.92c2.75.93,5.94,2.12,6.41,5,.52,3.22-3.3,3.63-5.43,4.82C589.88,422.9,585.78,424.89,587.5,430.75Z"/><path class="cls-9" d="M547.77,407.89l-2.36-.13c.26-2.28,2-3.3,3.7-4.39A67.44,67.44,0,0,1,584,392.89c10.22-.29,18,5.12,24.47,12.56a4.64,4.64,0,0,1,.91,3.29l-1,1c-13.23-15.82-29.57-14.73-46.71-8.37C556.91,403.12,552.41,405.68,547.77,407.89Z"/><path class="cls-7" d="M548.54,430.75l14.91,1a3.28,3.28,0,0,1-.22,1c-5.44,9.5-5.45,9.5,5.27,13.21,3.62,1.25,7.22,2.55,10.89,3.64,2.37.7,3.22,2.13,2.93,4.45-10.43-2.3-20.38-6.09-30.18-10.18C546.29,441.41,545.34,437,548.54,430.75Z"/><path class="cls-9" d="M615.4,411.77c4.09,5.66,5.31,12.24,6.06,19-4.08-.48-8.39,1.31-12.26-1.22,3.38-5.86,2.94-11.82.47-17.83Z"/><path class="cls-13" d="M615.4,411.77l-5.73-.09c-.41-.66-.83-1.31-1.25-2l1-1c16.53.57,33.14-1.1,49.61,1.55C644.47,410.78,630,412.28,615.4,411.77Z"/><path class="cls-8" d="M771.47,469a38.37,38.37,0,0,1,10.41-24.42,12.94,12.94,0,0,1,12.23-4c3.49.62,4.69,2.89,3.1,5.78A121.3,121.3,0,0,1,776,474.43a2.8,2.8,0,0,1-3.15.9C772,475,771.47,472.73,771.47,469Z"/><path class="cls-7" d="M485.28,436.46a13.46,13.46,0,0,1-.91,1.59c-3.6,4.74-7.19,9.48-10.85,14.18a7.93,7.93,0,0,1-4.55,2.82,3.74,3.74,0,0,1-3.72-.69c-1.3-1.23-.21-2.47.33-3.6a56.29,56.29,0,0,1,8.76-13.19c2-2.28,4.48-4,7.76-3.72C483.62,434,485.09,434.32,485.28,436.46Z"/><path class="cls-7" d="M504.71,430.7l.75.06,4.28,4.81c3.15,3.53,3.71,11.69.82,15.32-2.63,3.33-6.52,1.34-9.81,1.92C501.66,445.37,505.12,438.38,504.71,430.7Z"/><path class="cls-7" d="M628.51,453.13c2.25-7.15,6.61-12.89,12-17.9a10,10,0,0,1,2.9-1.86c2.06-.86,4.52-1.32,6.07.39s-.68,3.29-1.57,4.65a69.9,69.9,0,0,1-13.17,15.43Z"/><path class="cls-9" d="M623.39,430.73c5.85-11.06,15.54-19.59,31-12.6,3.13,1.41,6.71,1.81,10,2.82s5.52,3.05,4.94,6.95c-7.1-5.1-15.61-6.32-23.76-8.15-9.74-2.19-15,5.29-20.79,11.23Z"/><path class="cls-8" d="M628.51,453.13l6.26.71c-1.23,2.63-3.61,4.22-5.6,6.17-.65.63-1.39,1.75-2.43,1.16-1.26-.72-.67-2-.44-3.14A11.14,11.14,0,0,1,628.51,453.13Z"/><path class="cls-14" d="M826.72,228.93c.17,6.86-1.52,8.8-7.79,8.6A53.4,53.4,0,0,1,809.6,236a7.76,7.76,0,0,1-6.28-6.35c-1-4.38-2.16-8.73-2.9-13.15-.89-5.3-3.88-8.36-9-9.31-6.21-1.14-12.44-2.2-18.7-3.11-4.4-.64-7.72,1.2-10.05,5-2.16,3.55-4.28,7.16-6.77,10.48-5.11,6.84-16.09,7.41-22.09,1.38-2.62-2.63-2-5.5-.48-8.25,4.63-8.29,9.21-16.6,14.12-24.72q15.8-26.06,31.92-51.92c5.55-8.9,18.42-10.84,26.71-4.29a8.57,8.57,0,0,1,3.06,5c6.33,29.78,12.38,59.62,17.39,89.65A23.45,23.45,0,0,1,826.72,228.93Zm-50.45-50c0,6.68,4.58,11.45,11.13,11.48,6.07,0,11.41-5,11.54-10.84S793.42,168,787.48,168A11,11,0,0,0,776.27,178.94Z"/><path class="cls-6" d="M726.78,222.49c-.93.3-1.87.61-2.81.9-1.14.35-2.38.52-3.24-.41-1-1.14.11-2.16.63-3.06,2.07-3.61,2.4-7.09-.43-10.44-3.64-9.07-8.37-17.64-12.66-26.43-.14-4.07,1.92-6.63,5.21-8.92,13.65-9.5,18-28,10-41.36-4.37-9.05-10.73-16.18-19.82-20.72,5.85-.46,10.58,2.63,15.58,4.87,1.34,2.19,3.66,3.31,5.46,5,8,7.61,12.38,16.58,10.78,28-1.47,10.41-7.43,17.87-15.29,24.14-2.18,1.74-4.59,3.51-3.28,6.49,3.83,8.78,7.27,17.79,12.82,25.72C727.18,211.38,725.07,216.58,726.78,222.49Z"/><path class="cls-5" d="M729.78,206.27c-5.55-7.93-9-16.94-12.82-25.72-1.31-3,1.1-4.75,3.28-6.49,7.86-6.27,13.82-13.73,15.29-24.14,1.6-11.4-2.77-20.37-10.78-28-1.8-1.71-4.12-2.83-5.46-5,10.23,1.38,23.51,13.13,26,26.73,2.56,14.2-4.48,24.71-14.76,33.21-3.91,3.23-4.46,6.1-2.45,10.24s3.8,8.13,5.69,12.2A14.66,14.66,0,0,1,729.78,206.27Z"/><path class="cls-5" d="M789.45,213.54q-4,6.61-8.08,13.23a18.11,18.11,0,0,0-5.09,4.93c-5.07.54-10.29,2.74-14.93-1.39,4.78-.68,8.28-3.52,11-7.19s4.76-7.6,7.1-11.42A23.19,23.19,0,0,1,789.45,213.54Z"/><path class="cls-6" d="M779.41,211.7c-2.34,3.82-4.46,7.81-7.1,11.42s-6.18,6.51-11,7.19l-2-.34V227.8c6.19-4.41,8.72-11.57,13-17.39C774.85,210.15,777.28,210.14,779.41,211.7Z"/><path class="cls-4" d="M605.4,210.41c-4.55,2.72-9.5,2.51-14.53,2.14-17.73-1.31-35.46-2.68-53.21-3.72-14-.82-18.74-5.68-18-19.77,1.05-20.41,2.75-40.79,2.67-61.25,2-9.23.61-18.84,3.14-28,3-4.34,7.26-6.17,12.41-6.09C560,94,582,95.83,604,98a19,19,0,0,1,8.71,3.5c.31,2.16,2,3.59,2.9,5.44,2,10.19,1.07,19.28-9.22,24.91h0l-24.9-.25c-3.43-1.47-7-.59-10.54-.72-2.37-1.51-4.92-1.17-7.49-.76-1.53-.07-3.51-.9-3.92,1.47-.33,1.92.84,3,2.84,3l8,.19c3.23,1.71,6.65,1.15,10.05.9,5.77.84,11.63,1.41,16.75,4.61l2.91,5.66c.14,2,.37,3.92.4,5.89.17,10.87-2.42,15.21-11.2,18.94l-9.88.39c-3.63-.44-7.19-1.6-10.9-1a18.39,18.39,0,0,0-7.46-.18c-1.66-.33-3.42-.66-4.14,1.41s.88,2.5,2.34,3c2.71.64,5.43,1.28,8.25.7,4.55.58,9,1.84,13.7,1.07,1.94.23,3.88.49,5.83.68,7,.69,14.14.49,20.45,4.31l3.8,6.57c.64,7.43.52,14.71-4.15,21.09Zm-58.09-111,0,.3h-7c-8.61,0-10.27,1.29-10.72,10-1.37,26.26-2.68,52.53-3.69,78.81-.47,12.06,1,13.25,13.13,14.09q27.66,1.9,55.3,3.83c6.44.45,9.71-2,11-8.26,2.1-10.36-1.3-14.66-11.81-15.32-11.46-.72-22.93-1.4-34.35-2.53-5.9-.59-8.72-4-8.38-8.62.41-5.45,3.63-8.13,10-7.93,7.65.25,15.29.92,22.94,1.05,8.54.16,10.77-2.43,11.19-12.14.34-7.59-2.13-10.09-10.38-10.72-8-.61-15.93-1.22-23.87-2-5.57-.56-8.68-5.18-7-10.32,1.52-4.69,5.14-6.16,9.81-5.86,12.29.79,24.58,1.74,36.88,2.16,6.49.22,9.75-3.18,10.19-9.2.64-8.74-1.21-12.27-8.47-13C583.82,102,565.56,100.79,547.31,99.4Z"/><path class="cls-4" d="M708.27,183.05c4.29,8.79,9,17.36,12.66,26.43.12,10.94-4.32,15.4-15.17,15.35-10.46-.05-18.23-4.94-24.13-13.25-1.51-5.75-4.62-10.75-7.55-15.82-1.74-4.3-3.25-8.72-6.6-12.15-3.21-2-3.26.78-3.53,2.58-.89,6.08-1.52,12.19-2.42,18.27-1.4,9.43-5.59,13.14-15,13-6.5-.13-13-.62-18.09-5.62a28.09,28.09,0,0,1-1.91-14.08c.41-3.94.53-7.91.78-11.87.57-4.62,1.28-9.22,1.7-13.85,1.22-13.38,3.54-26.68,3.47-40.17q1.88-11.48,3.74-23c3.38-5.48,8.73-7.07,14.59-6.58,14.51,1.21,28.88,3.67,43.21,6.2a25.62,25.62,0,0,1,9.74,3.55c9.09,4.54,15.45,11.67,19.82,20.72a3.08,3.08,0,0,0-.11,1q5.67,25.5-15.3,41.05C704.48,177.5,705.36,180.35,708.27,183.05Zm-75.86,12.62c-.68,12.59,1.36,14.84,11.5,15.22,1.49.06,3-.1,4.49,0,3.82.15,5.92-1.89,6.69-5.38.61-2.75,1-5.56,1.36-8.36.69-4.93.92-10,2.08-14.8,1.79-7.46,8-8.91,13.36-3.32a19.45,19.45,0,0,1,3,4.57c3.7,7.26,7.48,14.49,10.91,21.88,3.83,8.26,10.36,12.29,19.13,13.14,3.23.32,6.51.13,8.62-2.74s1.12-6-.35-9c-3.71-7.44-7.53-14.83-11.11-22.33s-2.89-10.14,3.6-15.33c9.27-7.41,15.05-16.75,13.08-29-2.11-13.1-10.66-21.62-23-25.14-14.7-4.2-30-5.72-45.26-7.07-7-.62-9.4,1.77-10.13,8.71C637.59,143.89,634.9,171,632.41,195.67Z"/><path class="cls-5" d="M636.17,108.88q-1.86,11.48-3.74,23c-8.68,2.52-17.36,1.66-26,0h0c3,.6,5.25-1.42,7.92-2,6.08,2,12.28-2.29,13.07-9.4.58-5.27.63-10.58-2.08-15.46C629.46,104.72,632.62,107.34,636.17,108.88Z"/><path class="cls-6" d="M519.17,99c2.32,4.91,3.75,10.1,2.63,15.44-1.49,7.12-5.46,9.94-13.21,10.32,1-1.67,2.13-3.3,3.05-5,3.42-6.36,2.62-14.36-1.79-18.66l-2.76-5.61A13.76,13.76,0,0,1,519.17,99Z"/><path class="cls-6" d="M625.28,104.94c2.71,4.88,2.66,10.19,2.08,15.46-.79,7.11-7,11.41-13.07,9.4,6.37-7.1,6.94-17.27,1.3-22.91-.9-1.85-2.59-3.28-2.9-5.44C617.43,100.63,621.41,102.58,625.28,104.94Z"/><polygon class="cls-13" points="778.08 92.94 777.73 92.94 777.9 92.58 778.08 92.94"/><path class="cls-4" d="M634.25,365.13c-.37,4.67-3,6-7.44,5.71-16.22-1.2-32.51-1.47-48.66-3.68l4.35-8.39a9,9,0,0,0,4.27-5.77c5.52-6.43,8.47-14.26,11.41-22a220.08,220.08,0,0,0,11.9-44.2c1.44-9.24,2.17-18.78-6.88-25.46a4.26,4.26,0,0,1-1.39-5c.69-2.19,2.66-2.31,4.49-2.4,10-.49,19.91,1,29.88,1.27,6.15.19,12.28.6,18.42.9,3.08.15,6,.69,7.89,3.47v2.1c-1.14,1.2-2.06,2.94-3.46,3.5-10.38,4.14-14.35,13.29-16.91,22.79-4.63,17.17-8.78,34.5-12.16,52-1.51,7.78-2.64,16.31,3.38,23.38Zm-14.1-105.19v-.12c-1.66,0-3.33.05-5,0-2.79-.11-3.17,1-1.87,3.27,4.15,7.19,4.42,15.18,3,22.84-4.8,25.38-10.59,50.52-25.63,72.3-1.9,2.76-1.27,3.76,1.8,4l29.34,2.23c3.49.27,4.52-1.08,3.29-4.45a34.58,34.58,0,0,1-1-19.2c2.81-13.5,5.68-27,8.76-40.44,2.94-12.83,6.09-25.6,15.67-35.6,2.36-2.47,0-2.92-2-3.05Z"/><path class="cls-13" d="M776.28,231.7a18.11,18.11,0,0,1,5.09-4.93,26.86,26.86,0,0,1,1,8.37q0,52.94,0,105.86c0,34.92-24.23,62.37-58.91,66.74-3,.37-5.82,1.52-8.87.92l0-1.82c28.15-3.18,54.54-20.33,60.44-50.83a58.62,58.62,0,0,0,1.26-10.87Q776.41,288.42,776.28,231.7Z"/><path class="cls-5" d="M678.42,268.78c-5.53,2.18-8.27,7-10.86,11.81-5.43,10.11-7.27,21.36-9.63,32.38-2.84,13.28-7.35,26.24-7.61,40a33.64,33.64,0,0,0,2.77,13.06c1.86,4.74,1.34,5.71-3.64,5.64-2.07,0-4.84,1.34-6-1.86,2.51-2,1.4-4,.28-6.18A29.42,29.42,0,0,1,641,344.33c3.07-17.66,7.24-35.09,11.74-52.41,2.95-11.36,7.29-22.22,19-27.87.8-.38,1.24-1.5,1.85-2.28l4.58,1C679.07,264.75,679.83,266.72,678.42,268.78Z"/><path class="cls-6" d="M582.5,358.77l-4.35,8.39-6.68,1.54c0-2.06,2.07-2.3,3.17-3.37,2.13-2.07,1.9-3.57-.88-4.66-1.87-4.44-6.77-6.57-8.46-11.14.47-2.11-.73-3.87-1.33-5.72-1.9-5.82-3.86-11.64-6-17.39-1.47-4-.76-6.93,2.74-9.51,4-3,7.81-6.18,11.54-9.46,8.29-7.29,11.33-16.47,9.41-27.3-.54-3-.49-6.36-3.7-8.2-4-7.94-10.79-13-18.11-17.49,6.3.18,11.77,3,17.3,5.53.62.55,1.19,1.16,1.85,1.64,14.46,10.48,16.06,30.39,3.28,42.84-4.27,4.17-8.95,7.92-13.51,11.78-1.85,1.56-3.94,3.27-3,5.78C570.33,334.72,572.21,348.67,582.5,358.77Z"/><path class="cls-5" d="M582.5,358.77c-10.29-10.1-12.17-24-16.74-36.74-.91-2.51,1.18-4.22,3-5.78,4.56-3.86,9.24-7.61,13.51-11.78,12.78-12.45,11.18-32.36-3.28-42.84-.66-.48-1.23-1.09-1.85-1.64,17.34,1.37,28.41,21.58,21.16,38.18C595,305.7,589,310.58,583,315.4c-8.54,6.75-8.67,6.63-5.18,16.92,1.87,5.5,3.86,11,5.81,16.42.62,1.74,1.36,3.41,3.19,4.26A9,9,0,0,1,582.5,358.77Z"/><path class="cls-6" d="M673.55,261.77c-.61.78-1,1.9-1.85,2.28-11.7,5.65-16,16.51-19,27.87-4.5,17.32-8.67,34.75-11.74,52.41a29.42,29.42,0,0,0,2.73,19.34c1.12,2.14,2.23,4.22-.28,6.18-4.18.61-7.29-.85-9.17-4.71l-.91-1.79c-.93-6.75-1.83-13.47-.57-20.29q4.63-25,11.34-49.51c3.13-11.45,7.15-22.61,19.06-28.42,2.33-1.14,1.41-2.63-.68-3.41v-2.1C666.19,260.25,670.43,258.11,673.55,261.77Z"/><path class="cls-4" d="M678.42,268.78c1.41-2.06.65-4-.29-6-3.07-12.44-3.08-12.46,10.09-14.58,4.63-.74,9.3-1.33,12.21,3.71l.14,1.36c.33,2.36-1.63,5.8,2.91,6.18,4.58-.14,7.5,1.92,8.52,6.46,0,5.88-.46,11.66-3.62,16.83-2.13,3.49-4.83,6.33-9,7.48-6.49,1.8-9.92-.72-10-7.41,0-1.88.75-3.95-2.62-4.12C677.16,278.25,676.85,277.74,678.42,268.78Zm17.29,10.07c.36,1.43-1.49,3.92,1.28,4.85,1.94.66,3.47-.79,4.68-2.21,3.32-3.87,4.27-8.58,4.43-13.47.08-2.33-1.68-3.25-3.71-3-5.53.67-7.38-2.3-7.8-7.2-.38-4.46-1.85-4.91-8.32-3.71-4.25.78-3.12,3.1-2.37,5.86a25.46,25.46,0,0,1,.81,7.38c-.1,3.28.55,4.85,4.42,4.42C695,271.1,696,272.32,695.71,278.85Z"/><path class="cls-5" d="M518.53,326.77a27.36,27.36,0,0,1,8.11,12.78c-3.42,6.36-2.85,12.68.16,19,2.86,6,2.1,7.27-4.66,7.16-5.61-.09-11.29.77-16.81-1,1.54-1.44,3.71-2.48,3.33-5.16a22.22,22.22,0,0,0,3.73,3.18,5.4,5.4,0,0,0,6.49-.62c1.62-1.63-.16-3.35-1.11-4.82a19.28,19.28,0,0,1-3.15-9.3C514.13,340.64,515.82,333.59,518.53,326.77Z"/><path class="cls-6" d="M712,265.93c-1-4.54-3.94-6.6-8.52-6.46-.07-2.48.25-5.15-2.91-6.18l-.14-1.36a53.47,53.47,0,0,1,7.65-.64,4,4,0,0,1,3.6,3.43c-.44,7.78-.32,7.92,7,8.25.82,0,1.64.12,2.47.19l2.13,2.69c.55,9-1.56,17-9.13,22.74-.66.1-1.32.23-2,.31-1.25.15-2.76,1-3.55-.63-.6-1.23.5-2.18,1.18-3.07a23.28,23.28,0,0,0,4.53-14.5C714.37,268.8,714.67,266.58,712,265.93Z"/><path class="cls-5" d="M714.18,288.59c7.57-5.76,9.68-13.72,9.13-22.74,9.26-.06,10.77,1.68,9.05,10.75-.87,4.56-2.13,9.13-5.78,12.29C722.53,292.41,718.23,292,714.18,288.59Z"/><path class="cls-6" d="M667.48,183.61c3.35,3.43,4.86,7.85,6.6,12.15-.57,3.05-1.24,6.08-1.7,9.15-1.14,7.71-4.23,10.59-12,11,4.17-8.19,4.1-17.25,5.36-26C666.07,187.7,666.26,185.5,667.48,183.61Z"/><path class="cls-2" d="M627.26,185.85c-.25,4-.37,7.93-.78,11.87a28.09,28.09,0,0,0,1.91,14.08c-6.91,3.76-14,1.42-21.09.69-1-.1-1.49-1.17-1.9-2.07l1.76-1.61,2.55-.11c.61,2.58,2.55,2.33,4.33,1.81a9.94,9.94,0,0,0,6.44-5.77c3-6.64,2.49-13.19-.35-19.72Z"/><path class="cls-5" d="M660.4,215.86c7.75-.36,10.84-3.24,12-11,.46-3.07,1.13-6.1,1.7-9.15,2.93,5.07,6,10.07,7.55,15.82C677.38,219,666,221.33,660.4,215.86Z"/><path class="cls-5" d="M721.18,263.16c-.83-.07-1.65-.16-2.47-.19-7.35-.33-7.47-.47-7-8.25.65,0,1.31.06,2,.07C721,254.93,721.65,255.62,721.18,263.16Z"/><path class="cls-15" d="M573.76,360.67c2.78,1.09,3,2.59.88,4.66-1.1,1.07-3.13,1.31-3.17,3.37-1.74,1.72-2.33.07-3.1-1.06C570,365.17,573,363.82,573.76,360.67Z"/><path class="cls-5" d="M759.35,227.8V230c-.52.52-1.24.8-1.48-.05C757.57,228.83,758.42,228.21,759.35,227.8Z"/><path class="cls-13" d="M126.52,385.79l1.41.87-.52.52-.87-1.41Z"/><path class="cls-13" d="M126.54,385.77l-.6-.63.42-.23c.06.3.11.59.16.88Z"/><path class="cls-4" d="M776.27,178.94A11,11,0,0,1,787.48,168c5.94,0,11.59,5.68,11.46,11.58s-5.47,10.87-11.54,10.84C780.85,190.39,776.23,185.62,776.27,178.94Zm7.87,4.15c3.1,2.14,6.24,1.92,7.88-1.39,1.4-2.85.74-5.88-3.32-6.57-2.87-1.71-4.67.05-5.91,2.2S781.48,181.69,784.14,183.09Z"/><path class="cls-15" d="M708.27,183.05c-2.91-2.7-3.79-5.55-.15-8.25q21-15.59,15.3-41.05a3.08,3.08,0,0,1,.11-1c8,13.31,3.6,31.86-10,41.36C710.19,176.42,708.13,179,708.27,183.05Z"/><path class="cls-14" d="M547.31,99.4c18.25,1.39,36.51,2.56,54.72,4.3,7.26.69,9.11,4.22,8.47,13-.44,6-3.7,9.42-10.19,9.2-12.3-.42-24.59-1.37-36.88-2.16-4.67-.3-8.29,1.17-9.81,5.86-1.67,5.14,1.44,9.76,7,10.32,7.94.81,15.91,1.42,23.87,2,8.25.63,10.72,3.13,10.38,10.72-.42,9.71-2.65,12.3-11.19,12.14-7.65-.13-15.29-.8-22.94-1.05-6.36-.2-9.58,2.48-10,7.93-.34,4.61,2.48,8,8.38,8.62,11.42,1.13,22.89,1.81,34.35,2.53,10.51.66,13.91,5,11.81,15.32-1.28,6.29-4.55,8.71-11,8.26q-27.64-1.94-55.3-3.83c-12.16-.84-13.6-2-13.13-14.09,1-26.28,2.32-52.55,3.69-78.81.45-8.66,2.11-9.94,10.72-10h7Z"/><path class="cls-12" d="M627.26,185.85l-7.13-.83c-3.76-2.73-7.86-4.37-12.62-3.87-6.31-3.82-13.47-3.62-20.45-4.31-1.95-.19-3.89-.45-5.83-.68a5.17,5.17,0,0,1-1.79-5l9.88-.39c1.91,1.16,4,1.12,6.14,1,2,.26,3.94.45,5.89.79,13.1,2.23,18.82-1.78,20.82-14.65,1.27-8.2-3.7-13.93-12.07-13.89-3.72-3.21-8-4.7-12.89-3.77-5.12-3.2-11-3.77-16.75-4.61.34-1.37.69-2.74,1-4.11l24.9.25c8.68,1.69,17.36,2.55,26,0,.07,13.49-2.25,26.79-3.47,40.17C628.54,176.63,627.83,181.23,627.26,185.85Z"/><path class="cls-6" d="M607.51,181.15c4.76-.5,8.86,1.14,12.62,3.87,2.84,6.53,3.37,13.08.35,19.72a9.94,9.94,0,0,1-6.44,5.77c-1.78.52-3.72.77-4.33-1.81,5.11-6.64,5.6-13.64,1.6-21Z"/><path class="cls-6" d="M597.21,140.27c4.94-.93,9.17.56,12.9,3.77.65,2,1.75,4,1.88,6.09.75,12-1.9,19.63-13.68,19.71,5-5.28,5.67-11.77,5-18.54-.2-2.16-.08-4.84-3.23-5.37Z"/><path class="cls-15" d="M600.12,145.93c3.15.53,3,3.21,3.23,5.37.63,6.77-.05,13.26-5,18.54-1.43-.06-2.67.18-2.85,1.95-2.12.09-4.23.13-6.14-1,8.78-3.73,11.37-8.07,11.2-18.94C600.49,149.85,600.26,147.89,600.12,145.93Z"/><path class="cls-15" d="M615.59,106.89c5.64,5.64,5.07,15.81-1.3,22.91-2.67.58-5,2.6-7.92,2C616.66,126.17,617.6,117.08,615.59,106.89Z"/><path class="cls-2" d="M579.44,171.15a5.17,5.17,0,0,0,1.79,5c-4.66.77-9.15-.49-13.7-1.07.33-1.63.67-3.26,1-4.89C572.25,169.55,575.81,170.71,579.44,171.15Z"/><path class="cls-2" d="M581.49,131.55c-.34,1.37-.69,2.74-1,4.11-3.4.25-6.82.81-10.05-.9l.54-3.93C574.47,131,578.06,130.08,581.49,131.55Z"/><path class="cls-6" d="M568.54,170.2c-.34,1.63-.68,3.26-1,4.89-2.82.58-5.54-.06-8.25-.7l1.8-4.37A18.39,18.39,0,0,1,568.54,170.2Z"/><path class="cls-10" d="M611.31,187.72c4,7.34,3.51,14.34-1.6,21l-2.55.11C611.83,202.43,612,195.15,611.31,187.72Z"/><path class="cls-6" d="M571,130.83l-.54,3.93-8-.19a8.23,8.23,0,0,1,1.08-4.5C566,129.66,568.58,129.32,571,130.83Z"/><path class="cls-15" d="M563.46,130.07a8.23,8.23,0,0,0-1.08,4.5c-2,0-3.17-1.11-2.84-3C560,129.17,561.93,130,563.46,130.07Z"/><path class="cls-15" d="M561.08,170l-1.8,4.37c-1.46-.46-3-1-2.34-3S559.42,169.69,561.08,170Z"/><path class="cls-14" d="M632.41,195.67c2.49-24.64,5.18-51.78,8-78.9.73-6.94,3.16-9.33,10.13-8.71,15.23,1.35,30.56,2.87,45.26,7.07,12.29,3.52,20.84,12,23,25.14,2,12.21-3.81,21.55-13.08,29-6.49,5.19-7.25,7.7-3.6,15.33s7.4,14.89,11.11,22.33c1.47,2.94,2.51,6,.35,9s-5.39,3.06-8.62,2.74c-8.77-.85-15.3-4.88-19.13-13.14-3.43-7.39-7.21-14.62-10.91-21.88a19.45,19.45,0,0,0-3-4.57c-5.33-5.59-11.57-4.14-13.36,3.32-1.16,4.83-1.39,9.87-2.08,14.8-.39,2.8-.75,5.61-1.36,8.36-.77,3.49-2.87,5.53-6.69,5.38-1.49-.06-3,.1-4.49,0C633.77,210.51,631.73,208.26,632.41,195.67Zm45-41,0-.26a48.44,48.44,0,0,0,5,0c5.17-.57,9.84-4.22,10.36-8,.6-4.27-3.16-9.16-8.48-10.93A35.77,35.77,0,0,0,673,133.68c-7,0-10,2.54-10.86,9.4-.71,6,2.17,9.67,8.84,10.95A62.06,62.06,0,0,0,677.43,154.63Z"/><path class="cls-15" d="M509.85,101.11c4.41,4.3,5.21,12.3,1.79,18.66-.92,1.72-2,3.35-3.05,5l-6.53.85C511.18,119.53,511.72,110.7,509.85,101.11Z"/><path class="cls-15" d="M314.4,351.75c-6.17,6.4-13,11.73-22.17,13,7.62-3.86,14.24-9.21,21.11-14.2C313.69,350.94,314.05,351.34,314.4,351.75Z"/><path class="cls-6" d="M518.53,326.77c-2.71,6.82-4.4,13.87-3.91,21.26a19.28,19.28,0,0,0,3.15,9.3c1,1.47,2.73,3.19,1.11,4.82a5.4,5.4,0,0,1-6.49.62,22.22,22.22,0,0,1-3.73-3.18l-1.7-2.95c-2.14-10.58.28-20.66,3.37-30.67C513.09,326,516,324.71,518.53,326.77Z"/><path class="cls-15" d="M578,272c3.21,1.84,3.16,5.17,3.7,8.2,1.92,10.83-1.12,20-9.41,27.3-3.73,3.28-7.54,6.51-11.54,9.46-3.5,2.58-4.21,5.55-2.74,9.51,2.12,5.75,4.08,11.57,6,17.39.6,1.85,1.8,3.61,1.33,5.72-4.55-5.35-5.57-12.25-8-18.52-1-2.47-1.42-5.13-2.39-7.59-1.13-2.9-.66-5,2-6.89,2.95-2.13,5.58-4.71,8.48-6.93q17.11-13.11,13-34.21C578.12,274.26,578.1,273.1,578,272Z"/><path class="cls-15" d="M510.33,326c-3.09,10-5.51,20.09-3.37,30.67-4.86-6.39-5.09-22.88-.5-29.25A3.37,3.37,0,0,1,510.33,326Z"/><path class="cls-16" d="M620.15,259.94l26.38,1.75c2,.13,4.36.58,2,3.05-9.58,10-12.73,22.77-15.67,35.6-3.08,13.45-6,26.94-8.76,40.44a34.58,34.58,0,0,0,1,19.2c1.23,3.37.2,4.72-3.29,4.45l-29.34-2.23c-3.07-.23-3.7-1.23-1.8-4,15-21.78,20.83-46.92,25.63-72.3,1.44-7.66,1.17-15.65-3-22.84-1.3-2.27-.92-3.38,1.87-3.27,1.66.07,3.33,0,5,0Z"/><path class="cls-15" d="M662.49,261.72c2.09.78,3,2.27.68,3.41-11.91,5.81-15.93,17-19.06,28.42q-6.69,24.49-11.34,49.51c-1.26,6.82-.36,13.54.57,20.29-6-7.07-4.89-15.6-3.38-23.38,3.38-17.46,7.53-34.79,12.16-52,2.56-9.5,6.53-18.65,16.91-22.79C660.43,264.66,661.35,262.92,662.49,261.72Z"/><path class="cls-16" d="M695.71,278.85c.26-6.53-.68-7.75-6.58-7.09-3.87.43-4.52-1.14-4.42-4.42a25.46,25.46,0,0,0-.81-7.38c-.75-2.76-1.88-5.08,2.37-5.86,6.47-1.2,7.94-.75,8.32,3.71.42,4.9,2.27,7.87,7.8,7.2,2-.24,3.79.68,3.71,3-.16,4.89-1.11,9.6-4.43,13.47-1.21,1.42-2.74,2.87-4.68,2.21C694.22,282.77,696.07,280.28,695.71,278.85Z"/><path class="cls-2" d="M700.57,253.29c3.16,1,2.84,3.7,2.91,6.18C698.94,259.09,700.9,255.65,700.57,253.29Z"/><path class="cls-2" d="M73.57,121.71c.31-15.64-1-31.33.84-46.92C79.53,32.32,116,0,158.91,0Q384.53,0,610.14,0q58.47,0,116.93,0a85.85,85.85,0,0,1,82,58.85,77.94,77.94,0,0,1,4.22,25.5c-.1,14.15-.07,28.31-.09,42.47l-2.5.24c-6.12-2.8-12.69-4-19.23-5.23-.62-15.45,1.08-30.94-1-46.37-4-29.46-31.46-53.62-61.1-53.62q-285.36,0-570.71,0a59.94,59.94,0,0,0-21.9,4.07,64.14,64.14,0,0,0-41.2,59.9q0,21,0,42A15.66,15.66,0,0,0,85,126.17C81.53,123.75,77.86,121.93,73.57,121.71Z"/><path class="cls-5" d="M103.41,398.1c-6.92-.5-13.79-.41-20.37,2.11a4.5,4.5,0,0,1-3.73-.37,116.14,116.14,0,0,1-5.84-38.21c.2-36.4,0-72.8.17-109.21,0-4.65-.71-7.31-6.07-6.81a7.07,7.07,0,0,1-5-2c0-.29,0-.58,0-.87,8.7-.76,13.55-4.76,15.77-13.2,1.26-4.78,2.19-9.65,3.54-14.41.51-1.81,0-2.42-1.59-2.74,3-.59,6-1.21,9-1.76,3.54-.64,6,.56,7.14,4.15-1.56,1.89-.94,4.15-.94,6.25,0,48.09.06,96.17-.09,144.25a73.21,73.21,0,0,0,4.84,26.27,7.09,7.09,0,0,0,3.24,4.2Z"/><path class="cls-4" d="M96.48,214.81c-1.1-3.59-3.6-4.79-7.14-4.15-3,.55-6,1.17-9,1.76l-3.47.45c-5.21-.54-8,1.55-8.8,7-1.49,9.88-4.06,19.33-14.56,23.81-3.65,0-7.33.29-11,.06-8.17-.53-12.3-5.07-12-13.42.38-10.33,3.22-20.3,5-30.41,3.84-21.23,8.16-42.36,12.78-63.43,1.54-7,5.66-11,12.46-12.61a65.46,65.46,0,0,1,12.75-2.14c4.29.22,8,2,11.39,4.45,1.59,2.52,3.13,5.07,4.76,7.57,16.11,24.61,30.77,50.11,46,75.27a18.13,18.13,0,0,0,.51,3.39c2.15,6.32.51,11.34-5,15.09l-11.68,3.44-8,0c-4.62-2-7.76-5.59-10.43-9.73C99.65,219,98.85,216.34,96.48,214.81Zm-50.39,23c8.49-.14,12.46-3.15,14.7-11.38.91-3.36,1.58-6.8,2.2-10.23.9-5,3.66-8,8.78-8.83,5.9-1,11.74-2.33,17.64-3.26,5.12-.82,9.11,1.1,11.71,5.71,1.56,2.75,3.15,5.48,4.87,8.13,4.53,7,7,8,15,6.34,11.35-2.34,12.91-5.65,7.14-15.61Q107.49,173,85.6,138.13c-6.95-11.07-8.94-11.91-21.63-8.91-.81.19-1.6.47-2.41.66-3.94.93-6.23,3.25-7.17,7.33-6.88,29.82-12.32,59.92-17.69,90C35.25,235.41,37.87,237.9,46.09,237.77Z"/><path class="cls-15" d="M53.48,243.66C64,239.18,66.55,229.73,68,219.85c.83-5.43,3.59-7.52,8.8-7-2,1.52-4.16,3-4.56,5.67-1.37,8.84-3.47,17.35-9.69,24.23,0,.29,0,.58,0,.87Z"/><path class="cls-10" d="M791.44,121.85c-7.57.14-12.42,4.09-16.35,10.39-12.52,20-24.91,40.12-36.94,60.44-1.35,2.28-2.94,4.42-4.42,6.62-1.89-4.07-3.73-8.16-5.69-12.2s-1.46-7,2.45-10.24c10.28-8.5,17.32-19,14.76-33.21-2.45-13.6-15.73-25.35-26-26.73-5-2.24-9.73-5.33-15.58-4.87A25.62,25.62,0,0,0,694,108.5c-14.33-2.53-28.7-5-43.21-6.2-5.86-.49-11.21,1.1-14.59,6.58-3.55-1.54-6.71-4.16-10.89-3.94-3.87-2.36-7.85-4.31-12.59-3.49A19,19,0,0,0,604,98c-22-2.12-44-3.92-66.12-4.24-5.15-.08-9.41,1.75-12.41,6.1L519.17,99a13.76,13.76,0,0,0-12.08-3.53,20.71,20.71,0,0,0-10.24-3.62c-25.3-1.3-50.61-1.16-75.92-.91-5.81.06-10.32,2.28-12.78,7.84l-6.62-1c-3.95-2.29-8-4.33-12.78-3.62-16.26-8.42-27.44-1.84-32.29,9.76-3-.68-5.84-2.57-9.16-2-4.28-2.64-8.52-5.4-13.95-4.13a25.5,25.5,0,0,0-14.65-3.93c-13.45.26-26.86,1.29-40.25,2.37-7.59.61-15.3.44-22.74,2.42-7,1.86-10.12,5.73-10.16,12.84,0,4.79.4,9.59.62,14.39-1.92-.39-2.89-2.06-4.28-3.16-4.64-3.67-9.44-7-15.53-7.83-5.61-2.18-11-5.13-17.16-5.51a74.1,74.1,0,0,0-26.27-4.7c-25.43.45-49.24,19.91-53.94,44.84-.83,4.37-.89,8.9-1.3,13.35-4.64-5-7.31-11.4-11.21-16.94,1.58-2.5,1.68-5.4,1.43-8.1a270.84,270.84,0,0,1-1.41-31.2c0-1.65.58-3.59-2.06-5.58.77,13.54-1.24,26.13-1,38.82-2-1.19-2.78-3.22-3.94-5-2.76-4.32-6.59-6.38-11.82-5.09l-2.1-2q0-21,0-42a64.14,64.14,0,0,1,41.2-59.9,59.94,59.94,0,0,1,21.9-4.07q285.35,0,570.71,0c29.64,0,57.11,24.16,61.1,53.62C792.52,90.91,790.82,106.4,791.44,121.85ZM777.83,88.72c3.31-19.55-14-40.66-35.07-43.88-15-2.31-30.2-.82-45.31-1.69-26.57-1.54-53.26-.93-79.87-1-103.94-.15-207.88-1.37-311.83.53-35.28.65-70.58.46-105.87,1.06-16.79.29-33.57.3-50.15,3.22-3.64.65-7.93.23-11.59,4.5,13.34-2.88,25.77-3.18,38.28-2.71,18.79.7,37.58.13,56.4.78,30.42,1,60.92,1.1,91.36,1.08,102.78-.1,205.55,1.2,308.33-.62,34.28-.61,68.58-.88,102.87-1.15C758.72,48.7,775.38,64,777.83,88.72Zm.25,4.22-.18-.36-.17.36Z"/><path class="cls-6" d="M95.55,127.79l2.1,2c6.38,10.44,12.58,21,19.19,31.3,4.9,7.65,8.75,16,14.53,23,3.94,8.2,7.89,16.39,14.21,23.13-.31,2.85,1.86,4.86,2.51,7.4.9,3.55,1.22,7.19-1.74,9.69s-6.4,5.3-11,3.41c6.94-4.51,7.07-11.45.35-18.77-15.22-25.16-29.88-50.66-46-75.27-1.63-2.5-3.17-5-4.76-7.57A15.72,15.72,0,0,1,95.55,127.79Z"/><path class="cls-10" d="M252.22,426.67a2.77,2.77,0,0,0-.76.08c-4.28.64-5.67-2.42-7.24-5.48-3.34-6.47-9.1-8.12-15.44-4.61a44,44,0,0,0-8.89,7.15c-2.21,2.13-4.51,4.65-8.19,2.94l-1.2-3.95c.36-4.64-2.05-6.24-6.38-6.06a20.59,20.59,0,0,0-7.19,1.86c-7.2,3-14.37,6.11-21.59,9.07-5.3,2.16-9.6,1.27-13.83-3.19-7.65-8.08-17-11.24-28-7.21a4.19,4.19,0,0,1-5-1.06c-2.69-2.91-5.63-5.52-7.87-8.94-4-6.09-9.13-11-17.09-11.49a7.09,7.09,0,0,1-3.24-4.2,73.21,73.21,0,0,1-4.84-26.27c.15-48.08.06-96.16.09-144.25,0-2.1-.62-4.36.94-6.25,2.37,1.53,3.17,4.2,4.59,6.4,2.67,4.14,5.81,7.72,10.43,9.73.34,2.29,1,4.59,1,6.88-.68,26.76,1.35,53.49,1.08,80.25-.1,10.13,1.58,20.2,1,30.35,0,.59,0,1.37,1.06,1.21,1.19-1,.85-2.43.89-3.71.3-9.28.78-18.62.73-27.85-.16-29.09,1.93-58.09,2.27-87.15l11.68-3.44.34.36c-1.1,2,.16,2.48,1.81,3a31.68,31.68,0,0,0,14.21.71c9.76-1.61,11.78-4.18,12-14.09a63.55,63.55,0,0,0,38.8,3.24c3.4,3.79,8,3.54,12.27,3,15.53-2,29.92-6.49,39.71-20,.63-.87,1.86-1.3,2.8-1.94,3.56,8.94,8.34,12.06,17.45,10.81a134.87,134.87,0,0,1,15.8-.82c2.28,2.73,5.44,2.36,8.36,2.07,14.36-1.45,28.8-1.87,43.15-3.15,9-.8,18.94,1.05,26.67-6a36.73,36.73,0,0,0,20.61,1.09c5.33-1.19,8.24-4.33,9.29-9.75.83-4.32.22-8.59.14-12.9-.53-27.4-.58-54.82-1.87-82.21,2.42,1.78,2.75,4.4,2.81,7.1.57,27.7,1.1,55.39,1.75,83.09.12,5.12-.42,9.89-4.15,13.79-.59,3,1.9,2.6,3.41,2.84a35.88,35.88,0,0,0,6,.1c10.23-.08,13.9-3.69,13.9-13.75,0-10.6-.31-21.17-.86-31.77-.64-12.41-.15-24.89-.15-37.34,6.43,1.23,12.94.82,19.41.71,4-.06,5.75,1.36,5.64,5.5-.19,7.82-.23,15.64-.07,23.45.25,13.12-1.63,26.24-.08,39.35.92,7.74,4,10.81,11.69,11.79,17.61,2.24,23.57-2.76,24.07-20.54s.81-35.56,1.23-53.34c.05-2.28-.41-4.95,3.2-5-.33,3-.89,5.91-1,8.87-.44,17.4-.74,34.8-1.15,52.2-.13,5.63-.33,11.3-4.55,15.78-1.8,1.39-.77,2.22.62,2.83,11.16,4.9,22.19-1.77,22.93-13.86.08-1.32.07-2.65,0-4-.65-18.09.87-36.14,1-54.22,0-5.46,1.36-6.63,6.89-6.67s11.3,0,16.94,0c.08,20.46-1.62,40.84-2.67,61.25-.72,14.09,4,18.95,18,19.77,17.75,1,35.48,2.41,53.21,3.72,5,.37,10,.58,14.53-2.13.41.9.85,2,1.9,2.07,7.06.73,14.18,3.07,21.09-.69,5.05,5,11.59,5.49,18.09,5.62,9.46.18,13.65-3.53,15-13,.9-6.08,1.53-12.19,2.42-18.27.27-1.8.32-4.53,3.53-2.58-1.22,1.89-1.41,4.09-1.72,6.21-1.26,8.79-1.19,17.85-5.36,26,5.62,5.47,17,3.18,21.23-4.28,5.9,8.31,13.67,13.2,24.13,13.25,10.85,0,15.29-4.41,15.16-15.37,2.84,3.37,2.51,6.85.44,10.46-.52.9-1.67,1.92-.63,3.06.86.93,2.1.76,3.24.41.94-.29,1.88-.6,2.81-.9,5.1,6.32,12.05,8.68,19.81,8.82,6.88.13,11.24-4.38,15-9.4,2.08-2.79,3.79-5.85,5.64-8.81,1.2-1.91,2.45-3.67,5.15-2.69-4.31,5.82-6.84,13-13,17.39-.93.41-1.78,1-1.48,2.12.24.85,1,.57,1.48.05l2,.34c4.64,4.13,9.86,1.93,14.93,1.39q.06,56.73.05,113.44A58.62,58.62,0,0,1,775.07,356c-5.9,30.5-32.29,47.65-60.43,50.83a6.47,6.47,0,0,0-.87-.11c-.17-.54-.35-1.08-.52-1.63.73-3.76-1.3-5.91-4.32-7.53-2.56-1.38-4.68-.2-6.23,1.55-4.14,4.69-9.42,7.15-15.35,8.54-3.38.79-5.18,2.8-4.79,6.42-.11,4.07,1.65,7.12,5.37,8.66,3.42,1.41,4.53,3.54,3.24,7-6.83,2.18-13.86.6-20.78,1.07-.35-1-.69-1.92-1-2.88.58-3.9-1.59-5.92-4.94-6.95s-6.91-1.41-10-2.82c-15.45-7-25.14,1.54-31,12.6h-1.93c-.75-6.72-2-13.3-6.06-19,14.57.51,29.07-1,43.62-1.48-16.47-2.65-33.08-1-49.61-1.55a4.64,4.64,0,0,0-.91-3.29C602,398,594.25,392.6,584,392.89a67.44,67.44,0,0,0-34.92,10.48c-1.71,1.09-3.44,2.11-3.7,4.39-24.91-.43-49.81.15-74.74-.72-30.07-1.06-60.2-.24-90.3-.29a24.75,24.75,0,0,0-7.85,1c-5.65-3.67-11.29-4-16.9.07-2-1.19-4.14-1.14-6.31-1.08-15.62.43-31.24.36-46.86.74-38.59.92-77.2.11-115.81,1.12-17.56.46-34.26-3.79-49.14-13.81-1.69-1.14-2.82-3.52-6-3.46a14.77,14.77,0,0,0,1.4,2.16,30.14,30.14,0,0,0,2.67,2.24c14.45,11.1,31.53,15.07,49,15.77,24.61,1,49.28.29,73.93.32-.18,2.2-2.08,3.2-3.26,4.71-1.86,2.39-4,4.75-2.76,8.19Zm-125.7-40.88-.16-.88-.42.23.6.63.87,1.41.52-.52Zm222.1-126c-3.78-1.34-7.5-2.91-11.63-2.8-19.62-6.88-39.57-11.28-60.6-9-12,1.29-23.22,4.37-32.63,12.25-3.94,3.29-7.55,7-11.3,10.5,0-2.47,0-4.88,1.15-7.26,2.9-6.13,2.65-6.52-4.09-8.09-1.28-.29-2.6-.39-3.9-.57-3.4-3.22-7.66-2.69-11.79-2.76-4.81-4.77-11.21-3.21-16.93-4-6.16-.84-7.76.67-8.43,6.8-.38,3.45-1.67,5.14-5.32,4.83-2.51-.22-4.57.72-5.47,3.34-3.07,9,2.39,21.52,11,25.28,7.29,3.17,10.84.75,10.16-6.89-.17-1.94-.86-4.38,2.67-3.63-.55,9.22.2,10.06,8.75,9.89,3.53.93,6.67,3.09,10.43,3.28-.52,2.26-.95,4.54-1.56,6.78-6.64,24.25,4.26,52.67,24.48,63.94,13.18,7.35,27,10,41.84,6.1,3.61,3,8.19,3.23,12.24,2.74a64,64,0,0,0,26.48-9.42c8.33-5.18,14.12-12.92,21.21-19.33,7.16,12.8,18.49,19.63,32.48,22.54,7.13,1.48,14.23.06,21.32-.72a18.72,18.72,0,0,0,2.76,1.11c15.38,3.78,37.95-3.18,48.52-20.93,5-8.36,7.79-17.56,11-26.62,6.7-18.72,11.28-38.3,22-55.42,2.91,3,2.07,6.43,1.25,9.82q-6.45,26.87-13,53.71c-2.7,11.1-4.69,22.37-12.3,31.7-3.21,3.94-.87,7.32,5,7.44,13.61.29,27.24.27,40.85.38,5.52,1.73,11.2.87,16.81,1,6.76.11,7.52-1.15,4.66-7.16-3-6.32-3.58-12.64-.16-19,1.17,1.59,2.43,3.13,3.49,4.8,4,6.29,7.78,12.77,12,18.92,3.81,5.53,9.52,7.64,16.09,6.82,3.43-.43,6.76-1.61,10.13-2.45.77,1.13,1.36,2.78,3.1,1.06l6.68-1.54c16.15,2.21,32.44,2.48,48.66,3.68,4.43.33,7.07-1,7.44-5.7,1.88,3.86,5,5.32,9.17,4.71,1.19,3.2,4,1.83,6,1.86,5,.07,5.5-.9,3.64-5.64A33.64,33.64,0,0,1,650.32,353c.26-13.8,4.77-26.76,7.61-40,2.36-11,4.2-22.27,9.63-32.38,2.59-4.82,5.33-9.63,10.86-11.81-1.57,9-1.26,9.47,8.35,9.93,3.37.17,2.59,2.24,2.62,4.12.11,6.69,3.54,9.21,10,7.41,4.13-1.15,6.83-4,9-7.48,3.16-5.17,3.66-10.95,3.62-16.83,2.67.65,2.37,2.87,2.36,4.77a23.28,23.28,0,0,1-4.53,14.5c-.68.89-1.78,1.84-1.18,3.07.79,1.61,2.3.78,3.55.63.66-.08,1.32-.21,2-.31,4.05,3.43,8.35,3.82,12.4.3,3.65-3.16,4.91-7.73,5.78-12.29,1.72-9.07.21-10.81-9.05-10.75l-2.13-2.69c.47-7.54-.15-8.23-7.54-8.37-.65,0-1.31,0-2-.07a4,4,0,0,0-3.6-3.43,53.47,53.47,0,0,0-7.65.64c-2.91-5-7.58-4.45-12.21-3.71-13.17,2.12-13.16,2.14-10.09,14.58l-4.58-1c-3.12-3.66-7.36-1.52-11.06-2.15-1.92-2.78-4.81-3.32-7.89-3.47-6.14-.3-12.27-.71-18.42-.9-10-.3-19.88-1.76-29.88-1.27-1.83.09-3.8.21-4.49,2.4a4.26,4.26,0,0,0,1.39,5c9,6.68,8.32,16.22,6.88,25.46a220.08,220.08,0,0,1-11.9,44.2c-2.94,7.73-5.89,15.56-11.41,22-1.83-.85-2.57-2.52-3.19-4.26-2-5.46-3.94-10.92-5.81-16.42-3.49-10.29-3.36-10.17,5.18-16.92,6.09-4.82,12.09-9.7,15.38-17.23,7.25-16.6-3.82-36.81-21.16-38.18-5.53-2.55-11-5.35-17.29-5.52A126.83,126.83,0,0,0,547,250.72c-21.63-4.36-43.58-3.32-65.43-3.92-2.6-.07-4.36,1.32-5.89,3.18H472a10.51,10.51,0,0,0-7.58-3.28q-20.47,0-40.94,0c-4.77,0-7.13,2.21-6.77,7.07h-5.35c-2.26-3.53-6.17-2-9.25-3-2.41-3-6-2.68-9.13-2.74-11.75-.23-23.51-.17-35.27,0a43.29,43.29,0,0,0-9.28,1.44c-3.5.84-4.45,2.56-1.34,5.35,1.69,1.51,4,2.54,4.68,5Z"/><path class="cls-6" d="M62.59,242.77c6.22-6.88,8.32-15.39,9.69-24.23.4-2.63,2.56-4.15,4.56-5.67l3.47-.45c1.56.32,2.1.93,1.59,2.74-1.35,4.76-2.28,9.63-3.54,14.41C76.14,238,71.29,242,62.59,242.77Z"/><path class="cls-14" d="M46.09,237.77c-8.22.13-10.84-2.36-9.39-10.53,5.37-30.11,10.81-60.21,17.69-90,.94-4.08,3.23-6.4,7.17-7.33.81-.19,1.6-.47,2.41-.66,12.69-3,14.68-2.16,21.63,8.91q21.87,34.89,42.54,70.51c5.77,10,4.21,13.27-7.14,15.61-8,1.64-10.48.63-15-6.34-1.72-2.65-3.31-5.38-4.87-8.13-2.6-4.61-6.59-6.53-11.71-5.71-5.9.93-11.74,2.27-17.64,3.26-5.12.86-7.88,3.82-8.78,8.83-.62,3.43-1.29,6.87-2.2,10.23C58.55,234.62,54.58,237.63,46.09,237.77Zm18.46-58.48a11.07,11.07,0,0,0,11,11.15A11.22,11.22,0,1,0,76.11,168,11.48,11.48,0,0,0,64.55,179.29Z"/><path class="cls-13" d="M119.53,230.92c-.34,29.06-2.43,58.06-2.27,87.15,0,9.23-.43,18.57-.73,27.85,0,1.28.3,2.69-.89,3.71-1,.16-1.09-.62-1.06-1.21.54-10.15-1.14-20.22-1-30.35.27-26.76-1.76-53.49-1.08-80.25.06-2.29-.62-4.59-1-6.88Z"/><path class="cls-10" d="M135.71,209c6.72,7.32,6.59,14.26-.35,18.77l-3.81.07-.34-.36c5.52-3.75,7.16-8.77,5-15.09A18.13,18.13,0,0,1,135.71,209Z"/><path class="cls-13" d="M777.83,88.72c-2.45-24.72-19.11-40-42.45-39.84-34.29.27-68.59.54-102.87,1.15-102.78,1.82-205.55.52-308.33.62-30.44,0-60.94,0-91.36-1.08-18.82-.65-37.61-.08-56.4-.78-12.51-.47-24.94-.17-38.28,2.71,3.66-4.27,8-3.85,11.59-4.5,16.58-2.92,33.36-2.93,50.15-3.22,35.29-.6,70.59-.41,105.87-1.06,104-1.9,207.89-.68,311.83-.53,26.61,0,53.3-.58,79.87,1,15.11.87,30.27-.62,45.31,1.69C763.79,48.06,781.14,69.17,777.83,88.72Z"/><path class="cls-4" d="M286.43,211.68a134.87,134.87,0,0,0-15.8.82c-9.11,1.25-13.89-1.87-17.45-10.8q-1.26-12.44-2.54-24.87a190.82,190.82,0,0,0-2.77-31.19,110.31,110.31,0,0,0-1.7-19.71c-.22-4.8-.65-9.6-.62-14.39,0-7.11,3.19-11,10.16-12.84,7.44-2,15.15-1.81,22.74-2.42,13.39-1.08,26.8-2.11,40.25-2.37a25.5,25.5,0,0,1,14.65,3.93l5.12,7.09c1.24,9.07-.21,17.13-8.41,22.7L297.56,130l-7.77.94a10.59,10.59,0,0,0-2.88.08c-1.47.45-3.56.74-3.11,3,.35,1.73,2.1,1.78,3.59,1.75a19.64,19.64,0,0,0,2.39-.34l5.13-.67c4.88.34,9.75.49,14.51-1,5.37.19,10.58,1,15.09,4.26l2.15,3.95c0,.5.14,1,.81.89l-.05-.07c.06,2.47,0,4.95.21,7.4.59,7.44-1,13.82-8.24,17.54L299,170l-6.47.19c-2.37-.27-5-.5-5.79,2.35-.56,1.92.68,3.13,2.87,2.87a25,25,0,0,0,8.58-.59,45.56,45.56,0,0,0,12.39-.72c2.64.58,5.27.14,7.93,0,7.53-.33,15.37-2.24,22,3.48l2.17,3.58a32.61,32.61,0,0,0,.39,3.44c2.06,9.61.91,17.95-8.87,23-7.74.5-15.5.75-23.2,1.6C302.77,210.12,294.43,209.23,286.43,211.68ZM313,99.77c-16.86,1.45-35,1.68-53,4-7,.91-8.6,2.66-8.2,9.89.7,12.78,1.75,25.55,2.89,38.3,1.4,15.57,2.87,31.14,4.66,46.67.72,6.21,2.73,7.65,9,7.43,7-.25,13.95-.84,20.93-1.33,13.27-.94,26.55-1.83,39.82-2.9,4.92-.4,9.06-2.75,9.26-8.08.4-11-2.47-16.18-13.09-14.64-1.31.19-2.64.29-4,.36-10.63.58-21.26,1.31-31.9,1.63-5.54.16-8.13-2.55-8.47-7.71s1.85-8,7.48-8.61c7.76-.88,15.56-1.39,23.36-2s11-4,10.65-11.9c-.41-9-2.5-11.15-11-11-3.82,0-7.64.45-11.46.61-4.65.2-9.31.47-14,.43-4.27,0-7.47-2-8.22-6.47-.72-4.32,1.86-6.81,5.45-8.52a17.16,17.16,0,0,1,6.3-1.39c11.29-.77,22.6-1.35,33.86-2.34,6.8-.6,10.1-4.44,10-10.67a11.43,11.43,0,0,0-10.67-11.71C319.85,99.57,317,99.77,313,99.77Z"/><path class="cls-4" d="M198.4,220.67a63.55,63.55,0,0,1-38.8-3.24l-14-10.16c-6.32-6.74-10.27-14.93-14.21-23.13q-1.85-10.62-3.68-21.22c.41-4.45.47-9,1.3-13.35,4.7-24.93,28.51-44.39,53.94-44.84a74.19,74.19,0,0,1,26.28,4.7c7.68,5,14.46,10.94,19.47,18.72.52,4.52,1.91,8.94-1.77,13.12-9.52,10.83-20.72,12.62-32.41,4.8a12.35,12.35,0,0,0-7.79-4.66c-1.45-1.1-3.08-.7-4.68-.56-7.1-.31-12.68,2.89-14.85,9.32-3.85,11.39-2.34,22.41,5.43,32.11A13.66,13.66,0,0,0,185.7,187c2.56.29,5,0,6.89-1.93,4.61-1.3,5.79-5.54,7.74-9.09,4.65-8.46,8.44-10.31,17.71-8.14,4.33,1,8.57,2.38,12.85,3.59l1.67.44-.13,0,3.34,5.65c-.87,16.27-8.65,28.19-22.67,36.24-2.25,1.29-5.06,1.71-6.62,4.1l.06,0c-.92-.11-1.77-.07-2.06,1.05l.07,0A8.07,8.07,0,0,0,198.4,220.67Zm-64.21-59.82c.12,2.16.16,4.33.37,6.48,2.56,25.85,20,50.83,53.57,48.5,18.62-1.29,35.05-13.19,40.71-29.8,2.32-6.81,1.29-9-5.43-11.15-2.69-.85-5.48-1.37-8.21-2.11-4.24-1.15-7.08.71-9.09,4.24-.91,1.58-1.56,3.31-2.44,4.9-4.22,7.57-10.81,11-19.33,11s-15.26-3.71-19.14-11.31c-3.48-6.8-6.13-13.9-5.76-21.91.48-10.23,3.9-18.7,13.53-23.22s18.41-1.75,26.11,5.23c5.64,5.1,7.49,5.31,14.25,1.92a48.29,48.29,0,0,0,6-3.62c5.07-3.55,5.72-6.14,2.47-11.32-7.44-11.83-18.75-17.06-32.22-18C158.77,108.4,133.32,131.56,134.19,160.85Z"/><path class="cls-4" d="M480.54,126.87c-3.61,0-3.15,2.7-3.2,5-.42,17.78-.73,35.57-1.23,53.34S469.65,208,452,205.73c-7.72-1-10.77-4-11.69-11.79-1.55-13.11.33-26.23.08-39.35-.16-7.81-.12-15.63.07-23.45.11-4.14-1.61-5.56-5.64-5.5-6.47.11-13,.52-19.41-.71-6.14-3.27-8.28-8.65-8-15.27.16-3.62.44-7.24.67-10.85,2.46-5.56,7-7.78,12.78-7.84,25.31-.25,50.62-.39,75.92.91a20.71,20.71,0,0,1,10.24,3.62l2.76,5.61c1.87,9.59,1.33,18.42-7.79,24.53l-13,1.17A10.7,10.7,0,0,0,480.54,126.87ZM442.86,97.21v-.77c-6.49,0-13-.38-19.45.09-8.93.64-11.13,3.55-10.54,12.51.09,1.33.36,2.64.56,3.95.59,3.82,2.65,5.93,6.67,6,5,.1,10,.4,14.95.48,9,.14,11.31,2.33,11.25,11.25-.11,19.13-.36,38.26-.46,57.39,0,9.77,1.92,11.66,11.66,11.7a27.77,27.77,0,0,0,4-.14c5.67-.78,7.79-3.12,8.1-8.87.19-3.48.42-7,.51-10.45.43-17,.69-33.92,1.26-50.87.25-7.4,2.46-9.3,9.87-9.47,5-.12,10,0,15-.06,3.86,0,6.74-1.68,8.07-5.47,3.49-9.9-1.14-17.08-11.53-17.21C476.12,97.05,459.49,97.21,442.86,97.21Z"/><path class="cls-4" d="M392.78,100.87c1.29,27.39,1.34,54.81,1.87,82.21.08,4.31.69,8.58-.14,12.9-1.05,5.42-4,8.56-9.29,9.75a36.73,36.73,0,0,1-20.61-1.09c-2.52-3.31-4.65-6.79-5.05-11.06s-.77-8.5-1.16-12.76a494.25,494.25,0,0,0-2-53q0-11.91,0-23.82c4.85-11.6,16-18.18,32.3-9.76C389.45,96.82,391.54,98.59,392.78,100.87Zm-4.17,26.49h-1.28c0-7,.24-14-.07-21s-5.38-11-12.48-10.23c-8.12.92-12.56,5.76-12.4,14,.2,10.8.62,21.6,1,32.4.49,15.3.76,30.6,1.58,45.88.56,10.27,1.45,12.05,13.74,11.75.49,0,1-.14,1.48-.19,7.42-.76,8.45-1.84,8.46-9.32Q388.64,159,388.61,127.36Z"/><path class="cls-5" d="M489.08,126.81l13-1.17,6.53-.85c7.75-.38,11.72-3.2,13.21-10.32,1.12-5.34-.31-10.53-2.63-15.44l6.28.78c-2.53,9.16-1.19,18.77-3.14,28-5.64,0-11.29,0-16.94,0s-6.84,1.21-6.89,6.67c-.17,18.08-1.69,36.13-1,54.22.05,1.33.06,2.66,0,4-.74,12.09-11.77,18.76-22.93,13.86-1.39-.61-2.42-1.44-.62-2.83,6.83,1.25,11.45-1.78,12.59-8.44a60.28,60.28,0,0,0,.87-8.88C487.74,166.53,487.58,146.64,489.08,126.81Z"/><path class="cls-5" d="M408.15,98.81c-.23,3.61-.51,7.23-.67,10.85-.31,6.62,1.83,12,8,15.27,0,12.45-.49,24.93.15,37.34.55,10.6.86,21.17.86,31.77,0,10.06-3.67,13.67-13.9,13.75a35.88,35.88,0,0,1-6-.1c-1.51-.24-4,.14-3.41-2.84,9.49.07,12.78-2.91,13-12.32.1-5.48-.43-11-.52-16.45q-.56-34.2-1-68.41a18.11,18.11,0,0,0-3.08-9.85Z"/><path class="cls-6" d="M401.53,97.82a18.11,18.11,0,0,1,3.08,9.85q.47,34.21,1,68.41c.09,5.49.62,11,.52,16.45-.18,9.41-3.47,12.39-13,12.32,3.73-3.9,4.27-8.67,4.15-13.79-.65-27.7-1.18-55.39-1.75-83.09-.06-2.7-.39-5.32-2.81-7.1-1.24-2.28-3.33-4.05-4-6.67C393.56,93.49,397.58,95.53,401.53,97.82Z"/><path class="cls-5" d="M127.69,162.92q1.84,10.61,3.68,21.22c-5.78-7.09-9.63-15.4-14.53-23-6.61-10.3-12.81-20.86-19.19-31.3,5.23-1.29,9.06.77,11.82,5.09,1.16,1.82,2,3.85,3.94,5a8,8,0,0,0,3.07,6.06C120.38,151.52,123.05,157.87,127.69,162.92Z"/><path class="cls-2" d="M356.46,104q0,11.91,0,23.82a49.33,49.33,0,0,1-5.34,1q-18,1.56-35.93,3c-2.12.17-4.4-.29-5.75,2-4.76,1.45-9.63,1.3-14.51,1l2.65-4.72,32.5-2.41,6.18-.76c9.23,0,14.11-4.87,14.3-14.06.08-4-1.34-7.48-3.24-10.84C350.62,101.39,353.41,103.28,356.46,104Z"/><path class="cls-6" d="M228.68,128.15c-5-7.78-11.79-13.72-19.47-18.72,6.18.38,11.54,3.33,17.15,5.51,4.74,4.52,10.23,8.32,13.29,14.45s2.35,9.82-2.77,13.86a56.69,56.69,0,0,1-11.43,6.81l-2.87.1-.93-.36c.89-2.71,3.69-3.14,5.62-4.57C234.12,140.16,234.66,134.52,228.68,128.15Z"/><path class="cls-5" d="M225.45,150.06a56.69,56.69,0,0,0,11.43-6.81c5.12-4,5.79-7.8,2.77-13.86s-8.55-9.93-13.29-14.45c6.09.79,10.89,4.16,15.53,7.83,1.39,1.1,2.36,2.77,4.28,3.16a109.38,109.38,0,0,1,1.69,19.71c-3.77,2.06-7.41,4.46-11.36,6.09C232.72,153.28,228.53,154.51,225.45,150.06Z"/><path class="cls-6" d="M347.3,102c1.9,3.36,3.32,6.81,3.24,10.84-.19,9.19-5.07,14.08-14.3,14.06.92-1.15,1.86-2.28,2.76-3.45,4.56-6,4.37-12.56-.53-18.49l-5.12-7.09C338.78,96.57,343,99.33,347.3,102Z"/><path class="cls-13" d="M116.48,146a8,8,0,0,1-3.07-6.06c-.21-12.69,1.8-25.28,1-38.82,2.64,2,2.1,3.93,2.06,5.58a270.84,270.84,0,0,0,1.41,31.2C118.16,140.58,118.06,143.48,116.48,146Z"/><path class="cls-5" d="M145.58,207.27l14,10.16c-.25,9.91-2.27,12.48-12,14.09a31.68,31.68,0,0,1-14.21-.71c-1.65-.49-2.91-.93-1.81-3l3.81-.07c4.59,1.89,8-.85,11-3.41s2.64-6.14,1.74-9.69C147.44,212.13,145.27,210.12,145.58,207.27Z"/><path class="cls-4" d="M399.22,363.56c-7.09.78-14.19,2.2-21.32.72-14-2.91-25.32-9.74-32.48-22.54a32.91,32.91,0,0,0-1.89-10c1.81-9.91,3.83-19.79,5.4-29.75,1.89-12,5.94-23.77,5.36-36.18a6.75,6.75,0,0,0-2.57-6c-.72-2.44-3-3.47-4.68-5-3.11-2.79-2.16-4.51,1.34-5.35a43.29,43.29,0,0,1,9.28-1.44c11.76-.17,23.52-.23,35.27,0,3.14.06,6.72-.23,9.13,2.74L400.24,253c-5.22,4.41-10.48,8.84-12.37,15.79-4.43,16.3-8.89,32.6-12.94,49-1,4.16-1.79,9,2.94,12.12,3.13,3,6.8,3.58,10.87,2.45,3.39-.19,5.82-1.89,7.91-4.52A64.14,64.14,0,0,0,408,305.26c3.86-13.56,7.23-27.26,10.88-40.88,1.06-4,.76-7.54-2.26-10.59-.36-4.86,2-7.07,6.77-7.07q20.47,0,40.94,0A10.51,10.51,0,0,1,472,250l.57,2.31a38.65,38.65,0,0,0-19.19,22.62c-5.16,15.1-10.68,30.08-15.72,45.23-5.72,17.17-13.44,32.65-31.05,40.67C404,361.47,401.42,362,399.22,363.56ZM442,252.12v0c-4.16,0-8.33.12-12.48,0s-6,1.05-4.32,5.52c.77,2,.28,4.27-.3,6.4-4.16,15.24-8.16,30.52-12.5,45.72a62.33,62.33,0,0,1-11,21.14c-7.36,9.45-21.36,10.24-28.85,1.61-4.94-5.7-4.09-12.43-2.44-19,3.6-14.18,7.48-28.3,11.25-42.43,1.3-4.85,2.86-9.6,6-13.64,2.6-3.37,1-4.37-2.36-4.3-8,.19-16,.5-23.95.67-3.23.07-4.25,1.16-2.72,4.29,2.27,4.63,2.47,9.43,1.72,14.58-2.5,17.3-6.37,34.34-9.61,51.5-2.28,12.09,2.34,20.77,12.26,27.11,22.94,14.67,51.47,6.6,63.42-17.88,5.35-11,8.27-22.82,12.65-34.14,5.9-15.24,8.51-32,20.16-44.68,1.89-2-.45-2.46-1.89-2.49C452,252.06,447,252.12,442,252.12Z"/><path class="cls-4" d="M232.46,270.7c3.75-3.51,7.36-7.21,11.3-10.5,9.41-7.88,20.62-11,32.63-12.25,21-2.27,41,2.13,60.6,9,1.15,1.21,6,1.12,1.53,4.31-10.92,3.61-19.61,10.41-27,19-5,5.85-5,5.87-10.08.66-1.06-2.72-2.77-4.68-5.85-5a8.35,8.35,0,0,0-5.43.1c-1.3-.06-2.7-.51-3.67.85l.06,0c-4.91-.13-8.52,2.56-11.63,5.82-8.54,8.93-12.81,19.71-12.18,32,.32,6.32.41,13,5.44,18,3.31,4.91,8,7.14,13.84,7.22,3.22,1.67,6.29,0,9.41-.44,11.89-1.39,20.47-8,27.54-17.18,2.11-2.73,3.59-6,6.87-7.77,2.47-1.31,4-.9,4.88,1.94,1.16,3.81-.06,7.28-1.41,10.65-3.58,9-10.09,16-16,23.39-6.87,5-13.49,10.34-21.11,14.2l-.76.61a17.6,17.6,0,0,0-6,2.4c-14.81,3.88-28.66,1.25-41.84-6.1-20.22-11.27-31.12-39.69-24.48-63.94.61-2.24,1-4.52,1.56-6.78l-.15-.05c3.32-3.82,4.78-8.64,7-13A15.93,15.93,0,0,0,232.46,270.7ZM317.55,334c-2.39-.16-3.31,1.24-4.44,2.11a48.33,48.33,0,0,1-21.83,9.27c-17.76,3-30.69-5.72-33.38-23-1.35-8.75-1.24-17.67,2-26.14,4.44-11.79,11.14-21.69,24-25.54,7.48-2.24,14.82-2.76,20.74,3.83,1.52,1.69,2.76,1.32,4.1-.25,4-4.73,9.09-8.28,14-12,.86-.64,2.42-1,2.1-2.42s-1.8-1.35-2.87-1.67a113.57,113.57,0,0,0-55.23-3c-24.9,4.83-50.2,38.89-41.7,70.95,6.9,26,28.22,36.53,45.3,36.81,18.09.29,31.49-9.22,43-22.05C315,339.07,317.1,337.26,317.55,334Z"/><path class="cls-4" d="M505.33,364.75c-13.61-.11-27.24-.09-40.85-.38-5.84-.12-8.18-3.5-5-7.44,7.61-9.33,9.6-20.6,12.3-31.7q6.49-26.85,13-53.71c.82-3.39,1.66-6.86-1.25-9.82-.72-2.84-2.94-4.39-5.14-5.95-.93-1.91-2.55-3.51-2.75-5.77,1.53-1.86,3.29-3.25,5.89-3.18,21.85.6,43.8-.44,65.43,3.92a128.44,128.44,0,0,1,12.88,3.74C567.19,259,574,264,578,272c.12,1.15.14,2.31.36,3.44q4.06,21.14-13,34.21c-2.9,2.22-5.53,4.8-8.48,6.93-2.62,1.89-3.09,4-2,6.89,1,2.46,1.43,5.12,2.39,7.59,2.45,6.27,3.47,13.17,8,18.52,1.69,4.57,6.59,6.7,8.46,11.14-.72,3.15-3.78,4.5-5.39,7-3.37.84-6.7,2-10.13,2.45-6.57.82-12.28-1.29-16.09-6.82-4.24-6.15-8-12.63-12-18.92-1.06-1.67-2.32-3.21-3.49-4.8a27.36,27.36,0,0,0-8.11-12.78c-2.56-2.06-5.44-.78-8.2-.8a3.37,3.37,0,0,0-3.87,1.42c-4.59,6.37-4.36,22.86.5,29.25l1.7,2.95C509,362.27,506.87,363.31,505.33,364.75Zm-2.24-112c-4.49,0-9,0-13.48,0-1.08,0-2.49-.48-3,1-.4,1.08.46,1.86,1.11,2.6,4.3,4.86,4.56,10.35,3.05,16.38-3.64,14.51-6.67,29.17-10.68,43.57-3.64,13-4.27,27-12.11,38.78-1.46,2.2.52,2.61,2.37,2.92,8.76,1.47,17.57.44,26.36.69,2.69.08,3.47-.82,2.48-3.64-3.83-10.83-1.36-21.28,2.43-31.57a5.58,5.58,0,0,1,2.69-3.44c6.5-3,18.23.46,22,6.49,6.66,10.65,13.1,21.43,19.94,31.95a12.85,12.85,0,0,0,17.2,3.88c1.81-1.08,3-2.13,1.11-4.19-9.28-9.93-11.28-23.16-15.72-35.24-1.52-4.16.22-7.76,3.77-10.51,3.94-3.06,7.79-6.25,11.58-9.49,13.77-11.78,12.3-31.41-3-40.91a42.42,42.42,0,0,0-12.93-5.12C533.36,253.37,518.25,252.88,503.09,252.7Z"/><path class="cls-5" d="M478.42,255.75c2.2,1.56,4.42,3.11,5.14,5.95-10.74,17.12-15.32,36.7-22,55.42-3.25,9.06-6.06,18.26-11,26.62-10.57,17.75-33.14,24.71-48.52,20.93a18.72,18.72,0,0,1-2.76-1.11c2.2-1.56,4.8-2.09,7.34-2.76l2,.09c1.38,1.59,3.05,1,4.62.54,9.24-2.52,17.18-7.11,23.26-14.65,5.63-7,9-15.1,12-23.45,5.77-16.49,11.38-33,17.28-49.47C468.23,266.73,472.08,260.32,478.42,255.75Z"/><path class="cls-9" d="M416.66,253.79c3,3,3.32,6.62,2.26,10.59-3.65,13.62-7,27.32-10.88,40.88a64.14,64.14,0,0,1-11.39,22.53c-2.09,2.63-4.52,4.33-7.91,4.51-3-6-2.67-12.21-1-18.46,3.49-13.17,7.18-26.28,10.51-39.49,2.1-8.38,6-15.43,13.07-20.57Z"/><path class="cls-6" d="M478.42,255.75c-6.34,4.57-10.19,11-12.75,18.11-5.9,16.44-11.51,33-17.28,49.47-2.92,8.35-6.33,16.47-12,23.45-6.08,7.54-14,12.13-23.26,14.65-1.57.43-3.24,1.05-4.62-.54,10.5-3.24,18.31-9.84,23.78-19.25a91.43,91.43,0,0,0,7.26-16.41c5.3-15.41,10.54-30.84,16-46.19,3.27-9.17,7.26-18,16.19-23.28,1.29-.77,2.63-1.87.72-3.48L472,250h3.72C475.87,252.24,477.49,253.84,478.42,255.75Z"/><path class="cls-4" d="M201.55,277.76c-3.53-.75-2.84,1.69-2.67,3.63.68,7.64-2.87,10.06-10.16,6.89-8.65-3.76-14.11-16.28-11-25.28.9-2.62,3-3.56,5.47-3.34,3.65.31,4.94-1.38,5.32-4.83.67-6.13,2.27-7.64,8.43-6.8,5.72.78,12.12-.78,16.93,4,0,.82.07,1.63.1,2.44-2.45,5.74-6,11.21-3.62,18,.4,1.17-.6,2.83-1,4.27C206.86,277.88,204.16,277.47,201.55,277.76Zm-2.33-24c-3.49-.36-4.76,1.08-4.93,4.58-.26,5.7-1.76,6.92-7.78,7.09-1.53,0-2.68.18-2.82,1.93-.39,4.62.21,9,3.52,12.58,1.13,1.21,2.58,2.44,4.37,1.74,1.58-.62.8-2.32.92-3.55.35-3.64,1.56-8.61,5.16-7.83,6.63,1.43,5.93-2.49,6.56-6.19a20.62,20.62,0,0,1,1.38-5.25c1.36-2.89,1.05-4.35-2.53-4.29A16.53,16.53,0,0,1,199.22,253.75Z"/><path class="cls-6" d="M489.08,126.81c-1.5,19.83-1.34,39.72-1.75,59.59a60.28,60.28,0,0,1-.87,8.88c-1.14,6.66-5.76,9.69-12.59,8.44,4.22-4.48,4.42-10.15,4.55-15.78.41-17.4.71-34.8,1.15-52.2.08-3,.64-5.91,1-8.87A10.7,10.7,0,0,1,489.08,126.81Z"/><path class="cls-6" d="M411.31,253.78c-7.07,5.14-11,12.19-13.07,20.57-3.33,13.21-7,26.32-10.51,39.49-1.66,6.25-2,12.46,1,18.46-4.07,1.14-7.74.52-10.87-2.44-.43-10.28,2.53-19.95,5.31-29.66,2.17-7.64,4.27-15.31,6.11-23,1.89-7.89,4.65-15.21,11.27-20.45,1.86-1.48,1.58-2.66-.32-3.76l1.82-2.17C405.14,251.81,409.05,250.25,411.31,253.78Z"/><path class="cls-5" d="M198.4,220.67a8.07,8.07,0,0,1,6.15-1.86c1,2.09,2.62,1.56,4.26,1.12,17-4.48,30.86-12.74,37.18-30.4,1.64-4.59,2.3-8.94.18-13.46a7.09,7.09,0,0,1,4.47.76q1.28,12.43,2.54,24.87c-.94.63-2.17,1.06-2.8,1.93-9.79,13.54-24.18,18.05-39.71,20C206.43,224.21,201.8,224.46,198.4,220.67Z"/><path class="cls-5" d="M285.49,367.75a17.38,17.38,0,0,1,6-2.39c0,1.9,1.09,2.26,2.65,1.79,3-.91,6.1-1.68,9-2.84,15.33-6.09,26.06-17.5,35.19-30.72,2.77,2.36,3.3-1.67,5.2-1.81a32.91,32.91,0,0,1,1.89,10c-7.09,6.41-12.88,14.15-21.21,19.33a64,64,0,0,1-26.48,9.42C293.68,371,289.1,370.71,285.49,367.75Z"/><path class="cls-2" d="M358.4,180.82c.39,4.26.76,8.51,1.16,12.76s2.53,7.75,5.05,11.06c-7.73,7-17.65,5.16-26.67,6-14.35,1.28-28.79,1.7-43.15,3.15-2.92.29-6.08.66-8.36-2.07,8-2.45,16.34-1.56,24.5-2.45,7.7-.85,15.46-1.1,23.2-1.6,3,.84,5.41-1.18,8.1-1.86,6.37,1.76,12.28-2.58,13.26-9.62.73-5.3-.65-10.23-2.3-15.14Z"/><path class="cls-5" d="M232.46,270.7a15.93,15.93,0,0,1-4.85,7.15c-6.45-1-7.13-.39-7.12,6.12,0,2.3.06,4.6.09,6.91l.15.05c-3.76-.19-6.9-2.35-10.43-3.28.9-3.36-.64-6.59-.54-9.91,2.23.15,3.57-.81,3.85-3.09a48.43,48.43,0,0,0,4.64,1.67c2.58.68,4.34-.95,3.72-3.08-2-6.91,1.35-12.53,3.65-18.46,1.3.18,2.62.28,3.9.57,6.74,1.57,7,2,4.09,8.09C232.49,265.82,232.48,268.23,232.46,270.7Z"/><path class="cls-5" d="M351.72,259.81a6.75,6.75,0,0,1,2.57,6c-7,3.31-12.86,8.16-18.19,13.75-5.53,5.81-5.63,5.72-10.68-1,5-6.89,11.84-11.5,19.17-15.49,1.57-.85,3.52-1.22,4-3.34Z"/><path class="cls-6" d="M225.62,254.78c-2.3,5.93-5.64,11.55-3.65,18.46.62,2.13-1.14,3.76-3.72,3.08a48.43,48.43,0,0,1-4.64-1.67,18.08,18.08,0,0,1,1.92-14.35c1.38-2.42,2-4.74-1.6-5.84,0-.81-.07-1.62-.1-2.44C218,252.09,222.22,251.56,225.62,254.78Z"/><path class="cls-6" d="M348.62,259.76c-.51,2.12-2.46,2.49-4,3.34-7.33,4-14.17,8.6-19.17,15.49-.56.33-1.15.63-1.69,1-1.55,1-2.38,4.4-5.07,1.86s-.3-4.11,1.33-5.73a67,67,0,0,1,14.79-11c1.48-.84,3.67-1.09,3.74-3.5,4.43-3.19-.38-3.1-1.53-4.31C341.12,256.85,344.84,258.42,348.62,259.76Z"/><path class="cls-6" d="M209.76,277.74c-.1,3.32,1.44,6.55.54,9.91-8.55.17-9.3-.67-8.75-9.89,2.61-.29,5.31.12,7.8-1C209.49,277.07,209.63,277.41,209.76,277.74Z"/><path class="cls-4" d="M64.55,179.29A11.48,11.48,0,0,1,76.11,168a11.22,11.22,0,1,1-.51,22.44A11.07,11.07,0,0,1,64.55,179.29Zm13.38-3.89c-3.15-1.72-5.58-.52-6.86,2.37-1.18,2.68-.58,5.18,2.86,6,3.43,1.72,5.74.11,7-2.9C82,178.24,81,176.1,77.93,175.4Z"/><path class="cls-14" d="M313,99.77c4.05,0,6.9-.2,9.71,0a11.43,11.43,0,0,1,10.67,11.71c.07,6.23-3.23,10.07-10,10.67-11.26,1-22.57,1.57-33.86,2.34a17.16,17.16,0,0,0-6.3,1.39c-3.59,1.71-6.17,4.2-5.45,8.52.75,4.5,3.95,6.43,8.22,6.47,4.66,0,9.32-.23,14-.43,3.82-.16,7.64-.57,11.46-.61,8.49-.11,10.58,2.06,11,11,.37,7.91-2.7,11.3-10.65,11.9s-15.6,1.1-23.36,2c-5.63.64-7.82,3.45-7.48,8.61s2.93,7.87,8.47,7.71c10.64-.32,21.27-1.05,31.9-1.63,1.33-.07,2.66-.17,4-.36,10.62-1.54,13.49,3.62,13.09,14.64-.2,5.33-4.34,7.68-9.26,8.08-13.27,1.07-26.55,2-39.82,2.9-7,.49-13.95,1.08-20.93,1.33-6.25.22-8.26-1.22-9-7.43-1.79-15.53-3.26-31.1-4.66-46.67-1.14-12.75-2.19-25.52-2.89-38.3-.4-7.23,1.16-9,8.2-9.89C277.93,101.45,296.09,101.22,313,99.77Z"/><path class="cls-12" d="M250.64,176.83a7.16,7.16,0,0,0-4.47-.77c-4.35-2.16-8.75-4.15-13.74-4.23l.13,0-1.67-.44c-4.28-1.21-8.52-2.58-12.85-3.59-9.27-2.17-13.06-.32-17.71,8.14-2,3.55-3.13,7.79-7.74,9.09-4.94-13.27-7.81-26.45,1.91-39,11.69,7.82,22.89,6,32.41-4.8,3.68-4.18,2.29-8.6,1.77-13.12,6,6.37,5.44,12-1.41,17.08-1.93,1.43-4.73,1.86-5.62,4.57l-1.53.9c.28.3.53.83.84.87.94.09,1.38-.59,1.62-1.41l2.87-.1c3.08,4.45,7.27,3.22,11.05,1.67,3.95-1.63,7.59-4,11.36-6.09A189.73,189.73,0,0,1,250.64,176.83Z"/><path class="cls-12" d="M358.4,180.82l-5.21.19c-3.6-3.58-7.69-5.31-12.75-3.38-6.6-5.72-14.44-3.81-22-3.48-2.66.11-5.29.55-7.93,0,1-1.89,2.83-2.36,4.67-2.24,6.35.43,12.56-1,18.87-1.15,10.56-.3,15.13-3.52,15.94-12.66.75-8.53-1.92-17.82-12.84-17a14.59,14.59,0,0,0-12.67-3c-4.51-3.27-9.72-4.07-15.09-4.26,1.35-2.29,3.63-1.83,5.75-2q18-1.43,35.93-3a49.33,49.33,0,0,0,5.34-1A494.25,494.25,0,0,1,358.4,180.82Z"/><path class="cls-2" d="M337.18,141.05c10.92-.8,13.59,8.49,12.84,17-.81,9.14-5.38,12.36-15.94,12.66-6.31.19-12.52,1.58-18.87,1.15-1.84-.12-3.67.35-4.67,2.24a45.51,45.51,0,0,1-12.38.72c.27-1.61.53-3.21.8-4.82l20.43-2.25,7.95-.93c8.05,0,11.83-3.65,12.22-11.69A31.74,31.74,0,0,0,337.18,141.05Z"/><path class="cls-6" d="M340.44,177.63c5.06-1.93,9.15-.2,12.75,3.38,1.65,4.91,3,9.84,2.3,15.14-1,7-6.89,11.38-13.26,9.62,6.7-7,6.86-17.86.38-24.56Z"/><path class="cls-6" d="M337.18,141.05a31.74,31.74,0,0,1,2.38,14.1c-.39,8-4.17,11.71-12.22,11.69-.08-1.5,1.17-2.32,1.8-3.46a19,19,0,0,0-1.72-20.55l.05.07-.81-.89-2.15-3.95A14.59,14.59,0,0,1,337.18,141.05Z"/><path class="cls-15" d="M342.61,181.21c6.48,6.7,6.32,17.54-.38,24.56-2.69.68-5.07,2.7-8.1,1.86,9.78-5,10.93-13.37,8.87-23A32.61,32.61,0,0,1,342.61,181.21Z"/><path class="cls-15" d="M327.42,142.83a19,19,0,0,1,1.72,20.55c-.63,1.14-1.88,2-1.8,3.46l-7.95.93c7.27-3.72,8.83-10.1,8.24-17.54C327.43,147.78,327.48,145.3,327.42,142.83Z"/><path class="cls-15" d="M338.47,104.93c4.9,5.93,5.09,12.5.53,18.49-.9,1.17-1.84,2.3-2.76,3.45l-6.18.76C338.26,122.06,339.71,114,338.47,104.93Z"/><path class="cls-6" d="M299,170c-.27,1.61-.53,3.21-.8,4.82a25.36,25.36,0,0,1-8.59.6c-.16-2.38,1.62-3.67,2.92-5.23Z"/><path class="cls-6" d="M297.56,130l-2.65,4.72-5.13.67c-3.79-1.49-1.18-3,0-4.45Z"/><path class="cls-15" d="M289.79,131c-1.19,1.48-3.8,3,0,4.46a21.78,21.78,0,0,1-2.39.33c-1.49,0-3.24,0-3.59-1.75-.45-2.22,1.64-2.51,3.11-3A10.59,10.59,0,0,1,289.79,131Z"/><path class="cls-13" d="M292.49,170.21c-1.3,1.56-3.08,2.85-2.92,5.23-2.19.25-3.43-1-2.87-2.88C287.53,169.71,290.12,169.94,292.49,170.21Z"/><path class="cls-15" d="M326.66,142l.81.89C326.8,143,326.71,142.51,326.66,142Z"/><path class="cls-14" d="M134.19,160.85c-.87-29.29,24.58-52.45,55.35-50.21,13.47,1,24.78,6.21,32.22,18,3.25,5.18,2.6,7.77-2.47,11.32a48.29,48.29,0,0,1-6,3.62c-6.76,3.39-8.61,3.18-14.25-1.92-7.7-7-16.36-9.81-26.11-5.23s-13.05,13-13.53,23.22c-.37,8,2.28,15.11,5.76,21.91,3.88,7.6,10.57,11.28,19.14,11.31s15.11-3.43,19.33-11c.88-1.59,1.53-3.32,2.44-4.9,2-3.53,4.85-5.39,9.09-4.24,2.73.74,5.52,1.26,8.21,2.11,6.72,2.13,7.75,4.34,5.43,11.15-5.66,16.61-22.09,28.51-40.71,29.8-33.61,2.33-51-22.65-53.57-48.5C134.35,165.18,134.31,163,134.19,160.85Z"/><path class="cls-5" d="M194.5,146.07c-9.72,12.55-6.85,25.73-1.91,39-1.93,1.93-4.33,2.22-6.89,1.93-.84-1.42-1.65-2.86-2.54-4.25-6.71-10.33-10.14-31.39,3.55-41.34A12.35,12.35,0,0,1,194.5,146.07Z"/><path class="cls-6" d="M186.71,141.41c-13.69,10-10.26,31-3.55,41.34.89,1.39,1.7,2.83,2.54,4.25a13.66,13.66,0,0,1-13.09-4.72c.15-1.9-.64-3.57-1.31-5.27-6-15.41-2.59-27,10.73-36.16C183.63,140.71,185.26,140.31,186.71,141.41Z"/><path class="cls-6" d="M232.43,171.83c5,.08,9.39,2.07,13.74,4.23,2.12,4.53,1.46,8.88-.18,13.47-6.32,17.66-20.17,25.92-37.18,30.4-1.64.44-3.29,1-4.26-1.12l-.07,0a1.47,1.47,0,0,0,2.06-1.05l-.06,0a8.73,8.73,0,0,0,2,.15c13.86-2.18,30.08-20.08,30.88-34.14.16-2.78-.4-5.34-3.55-6.35Z"/><path class="cls-15" d="M235.77,177.48c3.15,1,3.71,3.57,3.55,6.35-.8,14.06-17,32-30.88,34.14a8.73,8.73,0,0,1-2-.15c1.56-2.39,4.37-2.81,6.62-4.1C227.12,205.67,234.9,193.75,235.77,177.48Z"/><path class="cls-15" d="M182,140.85C168.71,150,165.27,161.6,171.3,177c.67,1.7,1.46,3.37,1.31,5.27-7.77-9.7-9.28-20.72-5.43-32.11C169.35,143.74,174.93,140.54,182,140.85Z"/><path class="cls-6" d="M230.89,171.43l1.67.44Z"/><path class="cls-15" d="M206.54,217.78a1.47,1.47,0,0,1-2.06,1.05C204.77,217.71,205.62,217.67,206.54,217.78Z"/><path class="cls-16" d="M442.86,97.21c16.63,0,33.26-.16,49.88.06,10.39.13,15,7.31,11.53,17.21-1.33,3.79-4.21,5.43-8.07,5.47-5,.06-10-.06-15,.06-7.41.17-9.62,2.07-9.87,9.47-.57,17-.83,33.91-1.26,50.87-.09,3.48-.32,7-.51,10.45-.31,5.75-2.43,8.09-8.1,8.87a27.77,27.77,0,0,1-4,.14c-9.74,0-11.71-1.93-11.66-11.7.1-19.13.35-38.26.46-57.39.06-8.92-2.26-11.11-11.25-11.25-5-.08-10-.38-14.95-.48-4-.07-6.08-2.18-6.67-6-.2-1.31-.47-2.62-.56-3.95-.59-9,1.61-11.87,10.54-12.51,6.45-.47,13-.09,19.45-.09Z"/><path class="cls-14" d="M388.61,127.36q0,31.67,0,63.32c0,7.48-1,8.56-8.46,9.32-.49.05-1,.18-1.48.19-12.29.3-13.18-1.48-13.74-11.75-.82-15.28-1.09-30.58-1.58-45.88-.35-10.8-.77-21.6-1-32.4-.16-8.24,4.28-13.08,12.4-14,7.1-.81,12.16,3.11,12.48,10.23s.07,14,.07,21Z"/><path class="cls-5" d="M222.58,150.16c-.24.82-.68,1.5-1.62,1.41-.31,0-.56-.57-.84-.87l1.53-.9Z"/><path class="cls-16" d="M442,252.12c5,0,10-.06,15,0,1.44,0,3.78.44,1.89,2.49-11.65,12.7-14.26,29.44-20.16,44.68-4.38,11.32-7.3,23.18-12.65,34.14-11.95,24.48-40.48,32.55-63.42,17.88-9.92-6.34-14.54-15-12.26-27.11,3.24-17.16,7.11-34.2,9.61-51.5.75-5.15.55-10-1.72-14.58-1.53-3.13-.51-4.22,2.72-4.29,8-.17,16-.48,23.95-.67,3.36-.07,5,.93,2.36,4.3-3.1,4-4.66,8.79-6,13.64-3.77,14.13-7.65,28.25-11.25,42.43-1.65,6.54-2.5,13.27,2.44,19,7.49,8.63,21.49,7.84,28.85-1.61a62.33,62.33,0,0,0,11-21.14c4.34-15.2,8.34-30.48,12.5-45.72.58-2.13,1.07-4.37.3-6.4-1.68-4.47.17-5.67,4.32-5.52s8.32,0,12.48,0Z"/><path class="cls-12" d="M338.52,261.27c-.07,2.41-2.26,2.66-3.74,3.5a67,67,0,0,0-14.79,11c-1.63,1.62-3.95,3.25-1.33,5.73s3.52-.82,5.07-1.86c.54-.37,1.13-.67,1.69-1,5.05,6.73,5.15,6.82,10.68,1,5.33-5.59,11.16-10.44,18.19-13.75.58,12.41-3.47,24.14-5.36,36.18-1.57,10-3.59,19.84-5.4,29.75-1.9.14-2.43,4.17-5.2,1.81,1.68-3.93,4.09-7.61,4.27-12.06.06-1.27.41-2.83-1.18-3.47s-2.47.58-3.25,1.64a75,75,0,0,0-6.69,10.44c-4.26,8.31-9.49,15.9-17.08,21.61-.35-.41-.71-.81-1.06-1.21,5.88-7.42,12.39-14.43,16-23.39,1.35-3.37,2.57-6.84,1.41-10.65-.87-2.84-2.41-3.25-4.88-1.94-3.28,1.73-4.76,5-6.87,7.77-7.07,9.15-15.65,15.79-27.54,17.18-1.61-3.08-4.18-5.69-4.81-9.24-3.39-18.93-.72-36.07,14.82-49.32,5.1,5.21,5.07,5.19,10.08-.66C318.91,271.68,327.6,264.88,338.52,261.27Z"/><path class="cls-15" d="M472.52,252.28c1.91,1.61.57,2.71-.72,3.48-8.93,5.33-12.92,14.11-16.19,23.28-5.48,15.35-10.72,30.78-16,46.19a91.43,91.43,0,0,1-7.26,16.41c-5.47,9.41-13.28,16-23.78,19.25l-2-.09c17.61-8,25.33-23.5,31.05-40.67,5-15.15,10.56-30.13,15.72-45.23A38.65,38.65,0,0,1,472.52,252.28Z"/><path class="cls-15" d="M400.24,253c1.9,1.1,2.18,2.28.32,3.76-6.62,5.24-9.38,12.56-11.27,20.45-1.84,7.73-3.94,15.4-6.11,23-2.78,9.71-5.74,19.38-5.31,29.66-4.73-3.12-4-8-2.94-12.12,4.05-16.4,8.51-32.7,12.94-49C389.76,261.79,395,257.36,400.24,253Z"/><path class="cls-14" d="M317.55,334c-.45,3.22-2.56,5-4.24,6.91-11.49,12.83-24.89,22.34-43,22.05-17.08-.28-38.4-10.77-45.3-36.81-8.5-32.06,16.8-66.12,41.7-70.95a113.57,113.57,0,0,1,55.23,3c1.07.32,2.58.35,2.87,1.67s-1.24,1.78-2.1,2.42c-4.93,3.69-10,7.24-14,12-1.34,1.57-2.58,1.94-4.1.25-5.92-6.59-13.26-6.07-20.74-3.83-12.88,3.85-19.58,13.75-24,25.54-3.19,8.47-3.3,17.39-2,26.14,2.69,17.31,15.62,26,33.38,23a48.33,48.33,0,0,0,21.83-9.27C314.24,335.28,315.16,333.88,317.55,334Z"/><path class="cls-5" d="M301.44,281c-15.54,13.25-18.21,30.39-14.82,49.32.63,3.55,3.2,6.16,4.81,9.24-3.12.4-6.19,2.11-9.41.44.83-2-.81-3.08-1.73-4.35a26.09,26.09,0,0,1-4.78-11.39c-3.15-20.19,2.18-36.86,20.08-48.3C298.67,276.27,300.38,278.23,301.44,281Z"/><path class="cls-6" d="M295.59,275.91c-17.9,11.44-23.23,28.11-20.08,48.3a26.09,26.09,0,0,0,4.78,11.39c.92,1.27,2.56,2.35,1.73,4.35-5.82-.08-10.53-2.31-13.84-7.22.51-2.22-.42-4.27-.87-6.35a49.14,49.14,0,0,1,4.57-33.76c3.45-6.74,9.1-11.15,14.67-15.78l-.06,0a4.07,4.07,0,0,0,3.67-.85A8.35,8.35,0,0,1,295.59,275.91Z"/><path class="cls-6" d="M314.4,351.75c7.59-5.71,12.82-13.3,17.08-21.61a75,75,0,0,1,6.69-10.44c.78-1.06,1.71-2.25,3.25-1.64s1.24,2.2,1.18,3.47c-.18,4.45-2.59,8.13-4.27,12.06-9.13,13.22-19.86,24.63-35.19,30.72-2.92,1.16-6,1.93-9,2.84-1.56.47-2.65.11-2.65-1.79l.76-.62C301.42,363.48,308.23,358.15,314.4,351.75Z"/><path class="cls-15" d="M286.55,276.84c-5.57,4.63-11.22,9-14.67,15.78a49.14,49.14,0,0,0-4.57,33.76c.45,2.08,1.38,4.13.87,6.35-5-5-5.12-11.72-5.44-18-.63-12.32,3.64-23.1,12.18-32C278,279.4,281.64,276.71,286.55,276.84Z"/><path class="cls-10" d="M220.58,290.88c0-2.31-.08-4.61-.09-6.91,0-6.51.67-7.09,7.12-6.12C225.36,282.24,223.9,287.06,220.58,290.88Z"/><path class="cls-15" d="M290.16,276a4.07,4.07,0,0,1-3.67.85C287.46,275.5,288.86,276,290.16,276Z"/><path class="cls-14" d="M503.09,252.7c15.16.18,30.27.67,45.13,4.14A42.42,42.42,0,0,1,561.15,262c15.31,9.5,16.78,29.13,3,40.91-3.79,3.24-7.64,6.43-11.58,9.49-3.55,2.75-5.29,6.35-3.77,10.51,4.44,12.08,6.44,25.31,15.72,35.24,1.93,2.06.7,3.11-1.11,4.19a12.85,12.85,0,0,1-17.2-3.88c-6.84-10.52-13.28-21.3-19.94-31.95-3.77-6-15.5-9.45-22-6.49a5.58,5.58,0,0,0-2.69,3.44c-3.79,10.29-6.26,20.74-2.43,31.57,1,2.82.21,3.72-2.48,3.64-8.79-.25-17.6.78-26.36-.69-1.85-.31-3.83-.72-2.37-2.92,7.84-11.76,8.47-25.75,12.11-38.78,4-14.4,7-29.06,10.68-43.57,1.51-6,1.25-11.52-3.05-16.38-.65-.74-1.51-1.52-1.11-2.6.54-1.45,1.95-1,3-1C494.1,252.67,498.6,252.7,503.09,252.7Zm16.47,55.76c6.63-.62,13-1.16,18.5-4.72,5.85-3.75,7.65-9.43,7.44-15.92-.2-6.17-4.27-9.51-9.43-11.75-5.77-2.5-12-2.65-18.11-3-4.1-.2-6.21,1.72-7.15,5.42-1.47,5.81-3,11.6-4.38,17.43-2.3,9.65-1.05,11.27,9,12C516.91,308.09,518.39,308.32,519.56,308.46Z"/><path class="cls-16" d="M199.22,253.75a16.53,16.53,0,0,0,3.85.81c3.58-.06,3.89,1.4,2.53,4.29a20.62,20.62,0,0,0-1.38,5.25c-.63,3.7.07,7.62-6.56,6.19-3.6-.78-4.81,4.19-5.16,7.83-.12,1.23.66,2.93-.92,3.55-1.79.7-3.24-.53-4.37-1.74-3.31-3.57-3.91-8-3.52-12.58.14-1.75,1.29-1.89,2.82-1.93,6-.17,7.52-1.39,7.78-7.09C194.46,254.83,195.73,253.39,199.22,253.75Z"/><path class="cls-15" d="M209.76,277.74c-.13-.33-.27-.67-.41-1,.36-1.44,1.36-3.1,1-4.27-2.35-6.8,1.17-12.27,3.62-18,3.59,1.1,3,3.42,1.6,5.84a18.08,18.08,0,0,0-1.92,14.35C213.33,276.93,212,277.89,209.76,277.74Z"/><path class="cls-6" d="M77.93,175.4c3.06.7,4,2.84,3,5.48-1.23,3-3.54,4.62-7,2.9A10.94,10.94,0,0,1,77.93,175.4Z"/><path class="cls-15" d="M77.93,175.4a10.94,10.94,0,0,0-4,8.38c-3.43-.83-4-3.33-2.85-6C72.35,174.88,74.78,173.68,77.93,175.4Z"/><path class="cls-6" d="M788.7,175.13c4.06.69,4.72,3.72,3.32,6.57-1.64,3.31-4.78,3.53-7.88,1.39A12.59,12.59,0,0,1,788.7,175.13Z"/><path class="cls-15" d="M788.7,175.13a12.59,12.59,0,0,0-4.56,8c-2.66-1.4-2.55-3.66-1.35-5.76S785.83,173.42,788.7,175.13Z"/><path class="cls-5" d="M595.46,171.79c.18-1.77,1.42-2,2.85-1.95,11.78-.08,14.43-7.71,13.68-19.71-.13-2.06-1.23-4.06-1.88-6.09,8.36,0,13.33,5.69,12.06,13.89-2,12.87-7.72,16.88-20.82,14.65C599.4,172.24,597.42,172.05,595.46,171.79Z"/><path class="cls-4" d="M677.43,154.63A62.06,62.06,0,0,1,671,154c-6.67-1.28-9.55-4.93-8.84-10.95.81-6.86,3.81-9.42,10.86-9.4a35.77,35.77,0,0,1,11.26,1.76c5.32,1.77,9.08,6.66,8.48,10.93-.52,3.76-5.19,7.41-10.36,8a48.44,48.44,0,0,1-5,0Zm-6.56-6.91c2.66,1.69,5.56,1.05,8.42.91a14,14,0,0,0,3,.05c1.81-.35,3.79-.9,4-3.1s-1.45-3.21-3.28-3.83a21.33,21.33,0,0,0-2.4-.52c-2.24-1.4-4.69-1.38-7.18-1-2.72-.57-4.58.32-5.28,3.13C667.46,145.74,668.58,147.11,670.87,147.72Z"/><path class="cls-4" d="M519.56,308.46c-1.17-.14-2.65-.37-4.14-.48-10-.75-11.29-2.37-9-12,1.39-5.83,2.91-11.62,4.38-17.43.94-3.7,3.05-5.62,7.15-5.42,6.16.31,12.34.46,18.11,3,5.16,2.24,9.23,5.58,9.43,11.75.21,6.49-1.59,12.17-7.44,15.92C532.51,307.3,526.19,307.84,519.56,308.46Zm-4.43-6.33a23.73,23.73,0,0,0,8-.12c4.09.05,8-.5,11.28-3.24,5.57-3.66,6.81-9.38,3-13.95a9.92,9.92,0,0,0-9-3.89c-2.63-1.69-5.48-1.33-8.34-.92-2.19-.6-3.46.23-4,2.43-1.32,5.44-2.65,10.88-4,16.31C511.36,301.53,512.55,302.42,515.13,302.13Z"/><path class="cls-6" d="M673.34,140.18c2.49-.33,4.94-.35,7.17,1-1.43,2.3-1.16,4.87-1.22,7.4-2.86.14-5.76.78-8.42-.91C671,145,672.14,142.56,673.34,140.18Z"/><path class="cls-2" d="M679.29,148.63c.06-2.53-.21-5.1,1.22-7.4a21,21,0,0,1,2.41.52c1.83.62,3.44,1.73,3.28,3.83s-2.14,2.75-4,3.1A14,14,0,0,1,679.29,148.63Z"/><path class="cls-15" d="M673.34,140.18c-1.2,2.38-2.36,4.79-2.47,7.54-2.29-.61-3.41-2-2.81-4.41C668.76,140.5,670.62,139.61,673.34,140.18Z"/><path class="cls-5" d="M528.45,280.93a9.94,9.94,0,0,1,9,3.88l-3,14c-3.28,2.74-7.19,3.29-11.28,3.24A187.82,187.82,0,0,1,528.45,280.93Z"/><path class="cls-6" d="M528.45,280.93a187.82,187.82,0,0,0-5.3,21.08,23.68,23.68,0,0,1-8,.12q2.49-11.06,5-22.12C523,279.6,525.82,279.24,528.45,280.93Z"/><path class="cls-15" d="M520.11,280q-2.49,11.06-5,22.12c-2.59.29-3.78-.6-3.07-3.38,1.4-5.43,2.73-10.87,4-16.31C516.65,280.24,517.92,279.41,520.11,280Z"/><path class="cls-15" d="M534.43,298.77l3-14C541.24,289.39,540,295.11,534.43,298.77Z"/></g></g></svg>